<svg width="432" height="409" viewBox="0 0 432 409" fill="none" xmlns="http://www.w3.org/2000/svg">
<path d="M371.382 192.668C368.453 172.148 361.126 152.335 352.374 138.13C331.232 103.999 272.333 81.1684 227.958 87.0736C190.106 92.1048 171.919 122.482 137.791 133.023C106.393 142.721 78.1229 150.207 63.3226 175.796C31.968 229.847 108.613 288.937 174.303 284.332C195.039 282.872 213.564 275.858 234.844 279.148C278.044 285.829 292.386 293.011 330.54 279.65C368.133 266.479 376.505 228.563 371.382 192.668Z" fill="#D7D7D7"/>
<path opacity="0.8" d="M371.382 192.668C368.453 172.148 361.126 152.335 352.374 138.13C331.232 103.999 272.333 81.1684 227.958 87.0736C190.106 92.1048 171.919 122.482 137.791 133.023C106.393 142.721 78.1229 150.207 63.3226 175.796C31.968 229.847 108.613 288.937 174.303 284.332C195.039 282.872 213.564 275.858 234.844 279.148C278.044 285.829 292.386 293.011 330.54 279.65C368.133 266.479 376.505 228.563 371.382 192.668Z" fill="white"/>
<path d="M220.242 295.967L183.393 223.387H272.687L382.804 287.28" fill="white"/>
<path d="M220.242 295.967L183.393 223.387H272.687L382.804 287.28" stroke="#3B464C" stroke-width="0.75" stroke-linecap="round" stroke-linejoin="round"/>
<path d="M211.101 293.109L183.393 228.228V223.387L222.592 299.349L211.101 293.109Z" fill="#3B464C" stroke="#3B464C" stroke-width="0.75" stroke-linecap="round" stroke-linejoin="round"/>
<path d="M234.446 226.389L272.428 265.551L226.325 274.998L200.128 231.222L234.446 226.389Z" fill="white" stroke="#3B464C" stroke-width="0.75" stroke-linecap="round" stroke-linejoin="round"/>
<path d="M226.325 274.999V276.154L271.641 268.09L272.428 265.552L226.325 274.999Z" fill="#3B464C" stroke="#3B464C" stroke-width="0.75" stroke-linecap="round" stroke-linejoin="round"/>
<path d="M233.012 240.48L234.956 243.003L239.898 241.825L237.842 239.362L233.012 240.48Z" fill="#3B464C"/>
<path d="M251.718 255.915L249.368 253.118L243.752 254.448L245.946 257.306L251.718 255.915Z" fill="#3B464C"/>
<path d="M228.977 235.22L230.42 237.105L235.068 236.063L233.608 234.315L228.977 235.22Z" fill="#3B464C"/>
<path d="M237.928 246.871L240.589 250.337L246.024 249.129L243.086 245.625L237.928 246.871Z" fill="#3B464C"/>
<path d="M252.003 248.497L247.346 249.538L249.679 252.32L254.422 251.195L252.003 248.497Z" fill="#3B464C"/>
<path d="M241.065 250.944L243.285 253.848L248.866 252.518L246.525 249.721L241.065 250.944Z" fill="#3B464C"/>
<path d="M223.715 236.246L225.15 238.283L229.608 237.28L228.148 235.38L223.715 236.246Z" fill="#3B464C"/>
<path d="M235.414 243.603L237.47 246.27L242.585 245.024L240.399 242.417L235.414 243.603Z" fill="#3B464C"/>
<path d="M230.887 237.705L232.546 239.871L237.332 238.761L235.57 236.656L230.887 237.705Z" fill="#3B464C"/>
<path d="M220.83 242.592L219.378 240.289L214.082 241.475L215.559 243.815L220.83 242.592Z" fill="#3B464C"/>
<path d="M213.218 248.163L216.855 247.304L215.17 244.629L211.594 245.457L213.218 248.163Z" fill="#3B464C"/>
<path d="M222.143 234.011L223.275 235.623L227.673 234.764L226.489 233.229L222.143 234.011Z" fill="#3B464C"/>
<path d="M218.981 239.659L217.581 237.439L212.198 238.481L213.684 240.844L218.981 239.659Z" fill="#3B464C"/>
<path d="M216.916 234.947L217.987 236.649L222.463 235.783L221.314 234.156L216.916 234.947Z" fill="#3B464C"/>
<path d="M209.39 241.809L212.898 241.018L211.395 238.64L207.896 239.316L209.39 241.809Z" fill="#3B464C"/>
<path d="M210.678 236.071L211.801 237.85L217.184 236.808L216.104 235.091L210.678 236.071Z" fill="#3B464C"/>
<path d="M227.586 241.741L229.401 244.317L234.153 243.192L232.209 240.669L227.586 241.741Z" fill="#3B464C"/>
<path d="M239.786 250.519L237.133 247.068L232.183 248.269L234.585 251.682L239.786 250.519Z" fill="#3B464C"/>
<path d="M218.385 237.279L219.767 239.483L224.346 238.457L222.903 236.405L218.385 237.279Z" fill="#3B464C"/>
<path d="M219.421 251.362L215.689 252.267L217.624 255.482L221.469 254.623L219.421 251.362Z" fill="#3B464C"/>
<path d="M229.833 244.933L231.751 247.654L236.667 246.468L234.619 243.793L229.833 244.933Z" fill="#3B464C"/>
<path d="M226.359 241.315L224.778 239.073L220.164 240.107L221.616 242.417L226.359 241.315Z" fill="#3B464C"/>
<path d="M235.025 265.142L229.746 266.327L231.63 269.314L236.926 268.166L235.025 265.142Z" fill="#3B464C"/>
<path d="M226.852 232.462L231.371 231.648L228.943 228.745L224.493 229.391L226.852 232.462Z" fill="#3B464C"/>
<path d="M215.706 234.461L213.52 230.987L207.982 231.793L210.28 235.441L215.706 234.461Z" fill="#3B464C"/>
<path d="M222.895 245.867L221.227 243.215L215.957 244.438L217.642 247.114L222.895 245.867Z" fill="#3B464C"/>
<path d="M236.347 255.497L234.222 252.479L228.727 253.711L230.697 256.842L236.347 255.497Z" fill="#3B464C"/>
<path d="M233.79 251.864L231.388 248.459L226.212 249.713L228.329 253.08L233.79 251.864Z" fill="#3B464C"/>
<path d="M242.482 254.038L240.252 251.127L235.017 252.297L237.142 255.307L242.482 254.038Z" fill="#3B464C"/>
<path d="M228.606 244.507L226.791 241.923L222.005 243.04L223.672 245.677L228.606 244.507Z" fill="#3B464C"/>
<path d="M225.582 238.898L227.154 241.125L231.742 240.061L230.074 237.888L225.582 238.898Z" fill="#3B464C"/>
<path d="M230.956 247.851L229.038 245.123L224.061 246.301L225.824 249.098L230.956 247.851Z" fill="#3B464C"/>
<path d="M245.151 257.503L242.948 254.646L237.574 255.922L239.622 258.833L245.151 257.503Z" fill="#3B464C"/>
<path d="M241.6 262.952L239.259 259.631L233.349 261.06L235.423 264.335L241.6 262.952Z" fill="#3B464C"/>
<path d="M223.888 258.461L221.866 255.246L218.004 256.112L219.974 259.396L223.888 258.461Z" fill="#3B464C"/>
<path d="M217.253 247.928L213.598 248.794L215.317 251.644L219.024 250.747L217.253 247.928Z" fill="#3B464C"/>
<path d="M234.628 264.518L232.572 261.242L227.336 262.504L229.349 265.696L234.628 264.518Z" fill="#3B464C"/>
<path d="M225.037 249.28L223.284 246.491L218.03 247.738L219.81 250.557L225.037 249.28Z" fill="#3B464C"/>
<path d="M227.327 233.077L228.502 234.604L233.099 233.707L231.88 232.256L227.327 233.077Z" fill="#3B464C"/>
<path d="M207.515 238.686L210.997 238.009L209.874 236.216L206.401 236.839L207.515 238.686Z" fill="#3B464C"/>
<path d="M221.694 233.381L226.014 232.606L223.638 229.513L219.404 230.128L221.694 233.381Z" fill="#3B464C"/>
<path d="M216.518 234.316L220.882 233.533L218.566 230.25L214.341 230.866L216.518 234.316Z" fill="#3B464C"/>
<path d="M214.782 244.005L213.296 241.649L209.771 242.44L211.213 244.826L214.782 244.005Z" fill="#3B464C"/>
<path d="M232.217 231.496L236.122 230.789L233.669 228.061L229.807 228.615L232.217 231.496Z" fill="#3B464C"/>
<path d="M209.468 235.585L207.153 231.906L203.731 232.408L206.021 236.2L209.468 235.585Z" fill="#3B464C"/>
<path d="M228.96 266.502L224.813 267.429L226.61 270.408L230.843 269.489L228.96 266.502Z" fill="#3B464C"/>
<path d="M248.668 262.078L242.827 263.385L244.961 266.418L250.992 265.103L248.668 262.078Z" fill="#3B464C"/>
<path d="M242.032 263.568L235.812 264.959L237.721 267.992L244.158 266.593L242.032 263.568Z" fill="#3B464C"/>
<path d="M255.58 260.528L249.48 261.896L251.804 264.929L258.12 263.553L255.58 260.528Z" fill="#3B464C"/>
<path d="M261.585 259.183L256.401 260.345L258.949 263.378L264.306 262.207L261.585 259.183Z" fill="#3B464C"/>
<path d="M226.558 262.694L222.54 263.66L224.433 266.806L228.562 265.879L226.558 262.694Z" fill="#3B464C"/>
<path d="M238.827 259.023L236.779 256.112L231.094 257.465L232.96 260.437L238.827 259.023Z" fill="#3B464C"/>
<path d="M248.201 261.47L245.609 258.104L240.054 259.441L242.395 262.77L248.201 261.47Z" fill="#3B464C"/>
<path d="M232.183 260.619L230.308 257.647L225.063 258.901L226.947 261.881L232.183 260.619Z" fill="#3B464C"/>
<path d="M222.169 263.036L226.169 262.071L224.286 259.084L220.354 260.019L222.169 263.036Z" fill="#3B464C"/>
<path d="M227.543 253.263L225.435 249.903L220.199 251.173L222.255 254.441L227.543 253.263Z" fill="#3B464C"/>
<path d="M255.079 259.928L252.219 256.516L246.413 257.914L249.013 261.288L255.079 259.928Z" fill="#3B464C"/>
<path d="M229.919 257.025L227.94 253.886L222.653 255.071L224.674 258.279L229.919 257.025Z" fill="#3B464C"/>
<path d="M243.899 245.427L246.845 248.938L251.467 247.905L248.288 244.363L243.899 245.427Z" fill="#3B464C"/>
<path d="M238.153 238.572L242.248 237.622L240.408 235.577L236.399 236.474L238.153 238.572Z" fill="#3B464C"/>
<path d="M234.455 234.156L235.889 235.874L239.881 234.984L238.438 233.381L234.455 234.156Z" fill="#3B464C"/>
<path d="M261.049 258.59L257.956 255.132L253.031 256.317L255.899 259.745L261.049 258.59Z" fill="#3B464C"/>
<path d="M238.654 239.172L240.719 241.627L244.935 240.624L242.775 238.215L238.654 239.172Z" fill="#3B464C"/>
<path d="M250.18 252.921L252.53 255.725L257.429 254.547L254.949 251.788L250.18 252.921Z" fill="#3B464C"/>
<path d="M233.937 233.548L237.902 232.781L236.667 231.397L232.736 232.104L233.937 233.548Z" fill="#3B464C"/>
<path d="M243.397 244.834L247.761 243.77L245.471 241.217L241.22 242.228L243.397 244.834Z" fill="#3B464C"/>
<path d="M278.45 230.767V236.983C277.732 237.594 276.941 238.134 276.091 238.595C274.787 239.286 264.047 240.875 264.047 240.875L277.664 254.015C277.664 254.015 290.148 252.814 293.648 251.94C297.311 251.013 296.525 239.263 296.525 239.263L278.45 230.767Z" fill="white" stroke="#3B464C" stroke-width="0.75" stroke-linecap="round" stroke-linejoin="round"/>
<path d="M278.45 230.767V236.983C278.45 236.983 278.26 237.151 277.949 237.394L293.872 251.879C297.276 250.534 296.525 239.286 296.525 239.286L278.45 230.767Z" fill="#3B464C" stroke="#3B464C" stroke-width="0.75" stroke-linecap="round" stroke-linejoin="round"/>
<path d="M254.353 151.271V217.17L311.455 256.797V154.957L254.353 151.271Z" fill="white" stroke="#3B464C" stroke-width="0.75" stroke-linecap="round" stroke-linejoin="round"/>
<path d="M258.284 154.729V210.254L306.219 236.292V158.415L258.284 154.729Z" fill="#D7D7D7" stroke="#3B464C" stroke-width="0.75" stroke-linecap="round" stroke-linejoin="round"/>
<path d="M317.218 154.956H311.455V256.819H317.218V154.956Z" fill="#3B464C" stroke="#3B464C" stroke-width="0.75" stroke-linecap="round" stroke-linejoin="round"/>
<path d="M261.429 158.187L261.688 207.723L301.761 227.765V166.425L274.259 162.762L272.428 159.334L261.429 158.187Z" fill="white" stroke="#3B464C" stroke-width="0.75" stroke-linecap="round" stroke-linejoin="round"/>
<path d="M264.047 164.176V206.341L299.411 222.931V169.709L264.047 164.176Z" fill="#D7D7D7" stroke="#3B464C" stroke-width="0.75" stroke-linecap="round" stroke-linejoin="round"/>
<path d="M284.729 205.331C289.719 203.857 291.892 197.76 289.584 191.711C287.275 185.663 281.359 181.955 276.369 183.428C271.38 184.902 269.206 191 271.515 197.048C273.824 203.096 279.74 206.804 284.729 205.331Z" fill="#3B464C"/>
<path d="M281.595 195.07L284.956 191.794C285.182 191.502 285.299 191.155 285.288 190.801C285.277 190.448 285.14 190.106 284.895 189.826C284.394 189.195 283.608 189.066 283.167 189.514L279.936 192.668L276.696 188.108C276.229 187.447 275.443 187.242 274.968 187.652C274.717 187.924 274.575 188.261 274.563 188.611C274.55 188.961 274.668 189.305 274.899 189.59L278.26 194.34L274.838 197.6C274.612 197.893 274.496 198.241 274.508 198.594C274.521 198.948 274.661 199.289 274.907 199.569C275.105 199.844 275.414 200.042 275.771 200.124C275.927 200.157 276.09 200.153 276.243 200.11C276.395 200.067 276.531 199.987 276.635 199.88L279.875 196.726L283.107 201.286C283.305 201.596 283.634 201.826 284.023 201.925C284.172 201.966 284.331 201.971 284.483 201.939C284.636 201.907 284.775 201.839 284.887 201.742C285.134 201.469 285.274 201.132 285.285 200.782C285.296 200.433 285.178 200.089 284.947 199.804L281.595 195.07Z" fill="white"/>
<path d="M270.328 178.463L290.131 183.578" stroke="#3B464C" stroke-width="0.75" stroke-linecap="round" stroke-linejoin="round"/>
<path d="M269.542 173.622L295.211 179.922" stroke="#3B464C" stroke-width="0.75" stroke-linecap="round" stroke-linejoin="round"/>
<path d="M287.237 282.196C287.237 282.196 274.717 283.214 270.086 286.474C265.455 289.735 268.929 291.369 273.326 292.387C277.724 293.406 297.432 291.772 299.981 289.53C302.53 287.288 299.981 281.785 287.237 282.196Z" fill="white" stroke="#3B464C" stroke-width="0.75" stroke-linecap="round" stroke-linejoin="round"/>
<path d="M299.981 289.56C300.473 289.128 300.779 288.558 300.845 287.949C295.237 287.706 287.885 289.135 281.206 290.989C278.951 291.62 276.662 292.15 274.346 292.577C280.169 293.193 297.596 291.627 299.981 289.56Z" fill="#3B464C" stroke="#3B464C" stroke-width="0.75" stroke-linecap="round" stroke-linejoin="round"/>
<path d="M242.853 161.242L252.003 165.43" stroke="#3B464C" stroke-linecap="round" stroke-linejoin="round"/>
<path d="M237.6 158.84L240.322 160.086" stroke="#3B464C" stroke-linecap="round" stroke-linejoin="round"/>
<path d="M244.866 182.339L247.968 182.65" stroke="#3B464C" stroke-linecap="round" stroke-linejoin="round"/>
<path d="M232.995 181.131L241.358 181.982" stroke="#3B464C" stroke-linecap="round" stroke-linejoin="round"/>
<path d="M246.819 201.909L236.451 204.44" stroke="#3B464C" stroke-linecap="round" stroke-linejoin="round"/>
<path d="M233.435 90.4404C228.531 90.4404 223.737 91.7197 219.659 94.1164C215.581 96.5131 212.403 99.9197 210.526 103.905C208.649 107.891 208.158 112.277 209.115 116.508C210.072 120.739 212.434 124.625 215.901 127.676C219.369 130.726 223.788 132.804 228.598 133.645C233.408 134.487 238.394 134.055 242.925 132.404C247.456 130.753 251.329 127.957 254.053 124.371C256.778 120.784 258.232 116.566 258.232 112.252C258.232 106.468 255.62 100.92 250.969 96.829C246.319 92.7385 240.012 90.4404 233.435 90.4404ZM233.435 129.778C229.495 129.777 225.644 128.747 222.369 126.821C219.093 124.894 216.541 122.156 215.034 118.954C213.528 115.751 213.134 112.228 213.904 108.829C214.674 105.43 216.572 102.308 219.359 99.8573C222.146 97.407 225.696 95.7386 229.56 95.063C233.425 94.3874 237.431 94.7349 241.071 96.0616C244.711 97.3883 247.822 99.6346 250.011 102.517C252.2 105.398 253.368 108.787 253.368 112.252C253.373 114.557 252.86 116.839 251.86 118.969C250.86 121.099 249.393 123.034 247.541 124.665C245.689 126.295 243.49 127.587 241.07 128.469C238.65 129.35 236.055 129.803 233.435 129.801V129.778Z" fill="#3B464C"/>
<path d="M235.207 112.275C235.215 112.585 235.119 112.889 234.929 113.151C234.74 113.412 234.467 113.617 234.144 113.741C233.821 113.865 233.464 113.901 233.117 113.845C232.771 113.79 232.451 113.644 232.199 113.428C231.947 113.212 231.774 112.934 231.702 112.631C231.63 112.328 231.663 112.013 231.795 111.726C231.928 111.439 232.155 111.193 232.447 111.02C232.739 110.847 233.083 110.755 233.435 110.755C233.898 110.755 234.342 110.914 234.673 111.198C235.004 111.482 235.195 111.868 235.207 112.275Z" fill="#3B464C"/>
<path d="M227.5 120.187L233.435 112.275L243.466 119.579" stroke="#3B464C" stroke-linecap="round" stroke-linejoin="round"/>
<path d="M101.848 128.994L98.8676 121.828L100.457 123.401V120.954L103.836 125.498L100.855 109.242L104.829 118.157L105.227 110.291L105.823 112.913L106.618 103.998L108.009 117.632L109.996 112.913L109.598 119.031L114.964 105.047L112.381 122.527L116.156 120.08L113.97 123.226L116.752 121.478L113.581 129.519L102.047 129.694" fill="#D7D7D7"/>
<path d="M114.601 146.649H102.177L98.8243 127.71H117.945L114.601 146.649Z" fill="#3B464C" stroke="#3B464C" stroke-linecap="round" stroke-linejoin="round"/>
<path d="M148.617 146.521H85.8989V293.284H148.617V146.521Z" fill="white" stroke="#3B464C" stroke-linecap="round" stroke-linejoin="round"/>
<path d="M144.349 151.339H89.545V186.686H144.349V151.339Z" stroke="#3B464C" stroke-linecap="round" stroke-linejoin="round"/>
<path d="M127.907 165.801H105.987V172.23H127.907V165.801Z" fill="#3B464C"/>
<path d="M144.349 192.584H89.545V227.932H144.349V192.584Z" stroke="#3B464C" stroke-linecap="round" stroke-linejoin="round"/>
<path d="M127.907 207.047H105.987V213.476H127.907V207.047Z" fill="#3B464C"/>
<path d="M144.349 233.821H89.545V269.169H144.349V233.821Z" stroke="#3B464C" stroke-linecap="round" stroke-linejoin="round"/>
<path d="M127.907 248.284H105.987V254.714H127.907V248.284Z" fill="#3B464C"/>
<mask id="mask0_3168_4805" style="mask-type:luminance" maskUnits="userSpaceOnUse" x="48" y="120" width="199" height="175">
<path d="M246.819 120.84H48.0989V294.12H246.819V120.84Z" fill="white"/>
</mask>
<g mask="url(#mask0_3168_4805)">
<path d="M155.339 284.909C155.339 284.909 186.771 272.696 203.671 271.776L216 295.739H122.878L155.339 284.909Z" fill="#3B464C" stroke="#3B464C" stroke-width="0.75" stroke-linecap="round" stroke-linejoin="round"/>
<path d="M193.597 140.523C193.597 140.523 215.724 163.643 220.381 167.883C225.037 172.124 225.21 175.202 223.707 177.102C222.204 179.002 210.902 182.521 199.256 189.103C187.609 195.684 154.5 212.663 154.172 213.255C153.844 213.848 150.673 192.735 150.673 192.735L206.073 172.687L205.908 171.22L187.937 141.952L193.597 140.523Z" fill="white"/>
<mask id="mask1_3168_4805" style="mask-type:luminance" maskUnits="userSpaceOnUse" x="150" y="140" width="75" height="74">
<path d="M193.597 140.523C193.597 140.523 215.724 163.643 220.381 167.883C225.037 172.124 225.21 175.202 223.707 177.102C222.204 179.002 210.902 182.521 199.256 189.103C187.609 195.684 154.5 212.663 154.172 213.255C153.844 213.848 150.673 192.735 150.673 192.735L206.073 172.687L205.908 171.22L187.937 141.952L193.597 140.523Z" fill="white"/>
</mask>
<g mask="url(#mask1_3168_4805)">
<path d="M214.894 174.647L189.216 141.663L187.981 141.982L205.952 171.25L206.116 172.717L150.716 192.765C150.716 192.765 150.777 193.13 150.863 193.746L154.475 201.034L214.894 174.647Z" fill="#D7D7D7"/>
<path opacity="0.5" d="M214.894 174.647L189.216 141.663L187.981 141.982L205.952 171.25L206.116 172.717L150.716 192.765C150.716 192.765 150.777 193.13 150.863 193.746L154.475 201.034L214.894 174.647Z" fill="white"/>
</g>
<path d="M193.596 140.523C193.596 140.523 215.724 163.643 220.38 167.883C225.037 172.124 225.21 175.202 223.707 177.102C222.204 179.002 210.902 182.521 199.256 189.103C187.609 195.684 154.5 212.663 154.172 213.255C153.844 213.848 150.673 192.735 150.673 192.735L206.073 172.687L205.908 171.22L187.937 141.952L193.596 140.523Z" stroke="#3B464C" stroke-width="0.75" stroke-linecap="round" stroke-linejoin="round"/>
<path d="M175.962 130.424C175.962 130.424 173.301 128.372 171.97 130.424C170.64 132.476 170.476 135.835 171.305 136.131C172.135 136.428 175.461 135.987 175.962 135.105C176.463 134.224 175.962 130.424 175.962 130.424Z" fill="white" stroke="#3B464C" stroke-width="0.75" stroke-linecap="round" stroke-linejoin="round"/>
<path d="M180.619 129.397C180.619 129.397 177.794 126.768 175.962 127.786C174.131 128.805 174.632 134.375 175.297 134.816C175.962 135.257 179.954 134.056 180.481 133.349C181.008 132.643 180.619 129.397 180.619 129.397Z" fill="white" stroke="#3B464C" stroke-width="0.75" stroke-linecap="round" stroke-linejoin="round"/>
<path d="M186.944 129.542C186.944 129.542 184.447 126.502 182.123 126.502C179.798 126.502 178.122 133.821 178.96 134.406C179.798 134.991 185.276 134.262 185.613 133.821C186.147 132.417 186.591 130.989 186.944 129.542Z" fill="white" stroke="#3B464C" stroke-width="0.75" stroke-linecap="round" stroke-linejoin="round"/>
<path d="M191.808 134.52C191.808 133.646 191.316 126.031 188.352 126.472C185.388 126.912 182.2 133.061 182.364 134.072C182.529 135.082 191.808 134.52 191.808 134.52Z" fill="white" stroke="#3B464C" stroke-width="0.75" stroke-linecap="round" stroke-linejoin="round"/>
<path d="M206.073 172.718C206.073 172.718 214.557 175.499 217.719 175.347L206.073 172.718Z" fill="white"/>
<path d="M206.073 172.718C206.073 172.718 214.557 175.499 217.719 175.347" stroke="#3B464C" stroke-width="0.75" stroke-linecap="round" stroke-linejoin="round"/>
<path d="M136.305 295.937C145.342 294.599 156.92 289.135 160.367 282.257C157.775 270.332 154.5 253.536 154.5 243.261C154.5 225.994 159.684 216.19 157.326 204.501C154.967 192.812 150.008 185.189 144.685 182.111C144.685 182.111 136.538 184.011 128.218 190.889C119.897 197.767 112.579 209.593 109.728 220.864C106.877 232.135 103.075 266.813 103.075 275.888C103.075 284.962 102.332 296.225 102.332 296.225C112.294 296.225 122.256 296.225 132.218 296.225C133.587 296.237 134.955 296.14 136.305 295.937Z" fill="white"/>
<mask id="mask2_3168_4805" style="mask-type:luminance" maskUnits="userSpaceOnUse" x="102" y="182" width="59" height="115">
<path d="M136.305 295.937C145.342 294.599 156.92 289.135 160.367 282.257C157.775 270.332 154.5 253.536 154.5 243.261C154.5 225.994 159.684 216.19 157.326 204.501C154.967 192.812 150.008 185.189 144.685 182.111C144.685 182.111 136.538 184.011 128.218 190.889C119.897 197.767 112.579 209.593 109.728 220.864C106.877 232.135 103.075 266.813 103.075 275.888C103.075 284.962 102.332 296.225 102.332 296.225C112.294 296.225 122.256 296.225 132.218 296.225C133.587 296.237 134.955 296.14 136.305 295.937Z" fill="white"/>
</mask>
<g mask="url(#mask2_3168_4805)">
<path d="M160.367 282.249C155.304 286.049 132.503 293.428 129.177 294.082C125.85 294.736 127.699 288.549 132.875 282.37C138.05 276.192 126.585 284.65 124.736 285.296C122.887 285.942 125.479 273.258 125.479 267.056C125.479 260.855 132.14 208.172 132.14 208.172L144.711 187.994L149.031 185.714C147.825 184.303 146.366 183.073 144.711 182.073C144.711 182.073 136.564 183.973 128.244 190.851C119.923 197.729 112.579 209.593 109.728 220.864C106.877 232.134 103.075 266.813 103.075 275.888C103.075 284.962 102.332 296.225 102.332 296.225C112.294 296.225 122.256 296.225 132.218 296.225C133.583 296.226 134.944 296.119 136.287 295.906C145.342 294.599 156.92 289.134 160.367 282.249Z" fill="#D7D7D7"/>
<path opacity="0.5" d="M160.367 282.249C155.304 286.049 132.503 293.428 129.177 294.082C125.85 294.736 127.699 288.549 132.875 282.37C138.05 276.192 126.585 284.65 124.736 285.296C122.887 285.942 125.479 273.258 125.479 267.056C125.479 260.855 132.14 208.172 132.14 208.172L144.711 187.994L149.031 185.714C147.825 184.303 146.366 183.073 144.711 182.073C144.711 182.073 136.564 183.973 128.244 190.851C119.923 197.729 112.579 209.593 109.728 220.864C106.877 232.134 103.075 266.813 103.075 275.888C103.075 284.962 102.332 296.225 102.332 296.225C112.294 296.225 122.256 296.225 132.218 296.225C133.583 296.226 134.944 296.119 136.287 295.906C145.342 294.599 156.92 289.134 160.367 282.249Z" fill="white"/>
</g>
<path d="M136.305 295.937C145.342 294.599 156.92 289.135 160.367 282.257C157.775 270.332 154.5 253.536 154.5 243.261C154.5 225.994 159.684 216.19 157.326 204.501C154.967 192.812 150.008 185.189 144.685 182.111C144.685 182.111 136.538 184.011 128.218 190.889C119.897 197.767 112.579 209.593 109.728 220.864C106.877 232.135 103.075 266.813 103.075 275.888C103.075 284.962 102.332 296.225 102.332 296.225C112.294 296.225 122.256 296.225 132.218 296.225C133.587 296.237 134.955 296.14 136.305 295.937Z" stroke="#3B464C" stroke-width="0.75" stroke-linecap="round" stroke-linejoin="round"/>
<path d="M144.202 184.802L158.492 207.693L159.261 220.248C159.261 220.248 163.244 211.295 161.473 205.451C159.702 199.607 144.202 184.802 144.202 184.802Z" fill="#3B464C" stroke="#3B464C" stroke-width="0.75" stroke-linecap="round" stroke-linejoin="round"/>
<path d="M159.253 220.255L155.27 273.235L159.702 284.141L162.804 262.321L160.142 218.689L159.253 220.255Z" fill="#3B464C" stroke="#3B464C" stroke-width="0.75" stroke-linecap="round" stroke-linejoin="round"/>
<path d="M155.33 163.347C155.33 163.347 155.831 169.055 156.332 171.836C156.833 174.618 149.014 182.4 149.014 182.4L160.324 197.471L173.137 188.693C173.137 188.693 191.281 187.523 192.931 186.2C194.581 184.878 194.599 170.4 194.599 170.4L198.919 168.204C198.919 168.204 194.927 153.004 193.933 149.614L192.931 146.255C192.931 146.255 198.755 144.492 197.424 139.415C196.093 134.338 187.609 131.815 179.125 132.97C170.64 134.125 168.48 136.922 168.48 136.922C168.48 136.922 156.496 136.778 149.679 141.756C142.862 146.734 147.018 154.63 149.178 157.412C151.016 159.553 153.076 161.54 155.33 163.347Z" fill="white"/>
<mask id="mask3_3168_4805" style="mask-type:luminance" maskUnits="userSpaceOnUse" x="145" y="132" width="54" height="66">
<path d="M155.33 163.347C155.33 163.347 155.831 169.055 156.332 171.836C156.833 174.618 149.014 182.4 149.014 182.4L160.324 197.471L173.137 188.693C173.137 188.693 191.281 187.523 192.931 186.2C194.581 184.878 194.599 170.4 194.599 170.4L198.919 168.204C198.919 168.204 194.927 153.004 193.933 149.614L192.931 146.255C192.931 146.255 198.755 144.492 197.424 139.415C196.093 134.338 187.609 131.815 179.125 132.97C170.64 134.125 168.48 136.922 168.48 136.922C168.48 136.922 156.496 136.778 149.679 141.756C142.862 146.734 147.018 154.63 149.178 157.412C151.016 159.553 153.076 161.54 155.33 163.347Z" fill="white"/>
</mask>
<g mask="url(#mask3_3168_4805)">
<path d="M175.392 183.792C172.065 180.212 175.392 166.547 177.984 159.715C180.576 152.882 174.286 149.957 174.286 149.957L193.173 147.091L192.914 146.233C194.191 145.793 195.327 145.086 196.223 144.173L197.242 138.891C195.514 134.088 187.332 131.777 179.098 132.91C170.614 134.08 168.454 136.862 168.454 136.862C168.454 136.862 156.47 136.717 149.653 141.695C142.836 146.673 146.992 154.57 149.152 157.351C150.987 159.514 153.046 161.521 155.304 163.348C155.304 163.348 155.805 169.055 156.306 171.837C156.807 174.619 149.014 182.401 149.014 182.401L160.324 197.472L173.137 188.694C173.137 188.694 186.961 187.797 191.592 186.695L192.931 186.201C192.931 186.201 178.735 187.371 175.392 183.792Z" fill="#D7D7D7"/>
<path opacity="0.5" d="M175.392 183.792C172.065 180.212 175.392 166.547 177.984 159.715C180.576 152.882 174.286 149.957 174.286 149.957L193.173 147.091L192.914 146.233C194.191 145.793 195.327 145.086 196.223 144.173L197.242 138.891C195.514 134.088 187.332 131.777 179.098 132.91C170.614 134.08 168.454 136.862 168.454 136.862C168.454 136.862 156.47 136.717 149.653 141.695C142.836 146.673 146.992 154.57 149.152 157.351C150.987 159.514 153.046 161.521 155.304 163.348C155.304 163.348 155.805 169.055 156.306 171.837C156.807 174.619 149.014 182.401 149.014 182.401L160.324 197.472L173.137 188.694C173.137 188.694 186.961 187.797 191.592 186.695L192.931 186.201C192.931 186.201 178.735 187.371 175.392 183.792Z" fill="white"/>
<path d="M185.112 156.622C185.112 156.622 185.112 156.394 185.112 156.037C185.112 154.904 185.328 152.457 187.479 151.788C190.305 150.914 192.663 153.255 192.663 153.255L192.828 155.596C192.421 155.149 191.887 154.805 191.28 154.599C190.672 154.394 190.014 154.334 189.372 154.425C187.718 154.731 186.223 155.502 185.112 156.622Z" fill="#3B464C"/>
<path d="M189.942 161.303C189.942 162.511 189.562 163.499 189.078 163.499C188.594 163.499 188.214 162.511 188.214 161.303C188.214 160.094 188.585 159.106 189.078 159.106C189.57 159.106 189.942 160.087 189.942 161.303Z" fill="#3B464C"/>
<path d="M184.697 176.633C183.773 177.476 182.537 177.75 181.941 177.248C181.345 176.747 181.613 175.645 182.537 174.801C183.462 173.957 184.689 173.684 185.285 174.185C185.881 174.687 185.622 175.789 184.697 176.633Z" fill="#3B464C"/>
</g>
<path d="M155.33 163.347C155.33 163.347 155.831 169.055 156.332 171.836C156.833 174.618 149.014 182.4 149.014 182.4L160.324 197.471L173.137 188.693C173.137 188.693 191.281 187.523 192.931 186.2C194.581 184.878 194.599 170.4 194.599 170.4L198.919 168.204C198.919 168.204 194.927 153.004 193.933 149.614L192.931 146.255C192.931 146.255 198.755 144.492 197.424 139.415C196.093 134.338 187.609 131.815 179.125 132.97C170.64 134.125 168.48 136.922 168.48 136.922C168.48 136.922 156.496 136.778 149.679 141.756C142.862 146.734 147.018 154.63 149.178 157.412C151.016 159.553 153.076 161.54 155.33 163.347Z" stroke="#3B464C" stroke-width="0.75" stroke-linecap="round" stroke-linejoin="round"/>
<path d="M171.305 149.005C174.303 147.25 192.905 146.231 192.905 146.231C192.905 146.231 198.729 144.468 197.398 139.391C196.067 134.315 187.583 131.791 179.099 132.947C170.614 134.102 168.454 136.899 168.454 136.899C168.454 136.899 156.47 136.754 149.653 141.732C142.836 146.71 146.992 154.607 149.152 157.388C150.987 159.55 153.046 161.558 155.304 163.385C155.304 163.385 155.58 166.516 155.926 169.275L161.11 170.559L166.769 167.922L172.428 166.751C172.428 166.751 168.264 163.97 170.597 161.34C172.93 158.711 177.25 157.829 177.414 155.777C177.578 153.725 168.307 150.761 171.305 149.005Z" fill="#3B464C" stroke="#3B464C" stroke-width="0.75" stroke-linecap="round" stroke-linejoin="round"/>
<path d="M189.467 140.501C189.467 140.501 187.514 137.355 191.091 137.925C194.668 138.495 194.668 143.936 191.739 145.076C188.81 146.216 172.878 143.647 164.091 145.935C155.304 148.223 149.135 154.515 149.135 154.515" stroke="white" stroke-miterlimit="10" stroke-linecap="round"/>
<path d="M154.017 159.379C154.017 159.379 160.851 154.234 166.372 153.375C171.893 152.517 174.83 152.517 168.653 155.655C162.475 158.794 166.7 158.224 170.605 157.084" stroke="white" stroke-miterlimit="10" stroke-linecap="round"/>
<path d="M168.307 170.665C168.307 170.665 167.314 161.446 162.156 161.158C156.997 160.869 157.162 167.45 158.7 171.988C160.237 176.525 163.884 177.984 166.847 175.643" fill="#D7D7D7"/>
<mask id="mask4_3168_4805" style="mask-type:luminance" maskUnits="userSpaceOnUse" x="157" y="161" width="12" height="16">
<path d="M168.307 170.665C168.307 170.665 167.314 161.446 162.156 161.158C156.997 160.869 157.162 167.45 158.7 171.988C160.237 176.525 163.884 177.984 166.847 175.643" fill="white"/>
</mask>
<g mask="url(#mask4_3168_4805)">
<g opacity="0.5">
<path d="M168.307 170.665C168.307 170.665 167.314 161.446 162.156 161.158C156.997 160.869 157.162 167.45 158.7 171.988C160.237 176.525 163.884 177.984 166.847 175.643" fill="white"/>
<path d="M168.307 170.665C168.307 170.665 167.314 161.446 162.156 161.158C156.997 160.869 157.162 167.45 158.7 171.988C160.237 176.525 163.884 177.984 166.847 175.643" stroke="#3B464C" stroke-width="0.75" stroke-linecap="round" stroke-linejoin="round"/>
</g>
</g>
<path d="M168.307 170.665C168.307 170.665 167.314 161.446 162.156 161.158C156.997 160.869 157.162 167.45 158.7 171.988C160.237 176.525 163.884 177.984 166.847 175.643" stroke="#3B464C" stroke-width="0.75" stroke-linecap="round" stroke-linejoin="round"/>
<path d="M149.472 176.813L166.113 199.059L158.458 207.692C155.01 201.842 151.179 196.173 146.984 190.714C141.324 183.691 140.659 182.521 140.659 182.521L149.472 176.813Z" fill="white"/>
<mask id="mask5_3168_4805" style="mask-type:luminance" maskUnits="userSpaceOnUse" x="140" y="176" width="27" height="32">
<path d="M149.472 176.813L166.113 199.059L158.458 207.692C155.01 201.842 151.179 196.173 146.984 190.714C141.324 183.691 140.659 182.521 140.659 182.521L149.472 176.813Z" fill="white"/>
</mask>
<g mask="url(#mask5_3168_4805)">
<path d="M149.472 176.813L140.659 182.521C140.659 182.521 141.152 183.38 144.78 187.963L154.094 182.992L149.472 176.813Z" fill="#D7D7D7"/>
<path opacity="0.5" d="M149.472 176.813L140.659 182.521C140.659 182.521 141.152 183.38 144.78 187.963L154.094 182.992L149.472 176.813Z" fill="white"/>
</g>
<path d="M149.472 176.813L166.113 199.059L158.458 207.692C155.01 201.842 151.179 196.173 146.984 190.714C141.324 183.691 140.659 182.521 140.659 182.521L149.472 176.813Z" stroke="#3B464C" stroke-width="0.75" stroke-linecap="round" stroke-linejoin="round"/>
<path d="M192.266 232.134C192.266 232.134 194.927 227.3 195.428 224.23C195.929 221.16 196.094 219.396 198.089 217.937C200.085 216.478 206.574 210.618 207.593 208.422C208.613 206.226 209.252 208.278 209.753 210.033C210.254 211.789 210.082 213.4 208.423 214.426C207.254 215.189 206.192 216.072 205.261 217.056L206.755 218.082C206.755 218.082 227.552 211.204 229.72 210.482C231.889 209.76 233.876 210.33 234.04 211.796C234.205 213.263 233.548 213.408 232.546 213.848C231.543 214.289 220.571 217.648 219.067 218.234L217.573 218.819L218.739 219.845C218.739 219.845 224.726 219.7 227.725 219.556C230.723 219.412 235.207 218.971 235.872 219.845C236.169 220.236 236.282 220.713 236.189 221.176C236.096 221.639 235.803 222.052 235.371 222.33C235.021 222.625 234.6 222.846 234.139 222.978C233.679 223.11 233.19 223.148 232.71 223.09C231.215 223.09 218.402 223.964 218.402 223.964L218.739 225.575C218.739 225.575 232.382 227.475 232.874 228.06C233.366 228.646 233.375 228.942 232.874 229.816C232.373 230.69 232.01 230.698 230.714 230.698C229.418 230.698 218.618 229.231 218.618 229.231C218.618 229.231 223.94 231.868 224.606 232.309C225.271 232.75 227.595 233.069 226.93 234.064C226.264 235.06 225.936 235.379 224.934 235.235C223.932 235.09 216.786 232.309 216.786 232.309C216.786 232.309 209.632 233.183 207.282 233.335C205.552 233.405 203.819 233.354 202.098 233.183L195.446 236.983L192.266 232.134Z" fill="white" stroke="#3B464C" stroke-width="0.75" stroke-linecap="round" stroke-linejoin="round"/>
<path d="M145.022 225.545C145.022 225.545 140.193 207.837 138.197 203.885C136.201 199.933 124.891 196.285 119.396 204.911C113.901 213.537 118.895 223.349 120.9 230.371C122.904 237.394 135.536 269.131 137.367 273.106C139.199 277.081 142.551 276.146 144.357 275.743C146.163 275.34 196.759 239.446 196.759 239.446L192.767 231.549L153.507 249.28L145.022 225.545Z" fill="white"/>
<mask id="mask6_3168_4805" style="mask-type:luminance" maskUnits="userSpaceOnUse" x="116" y="199" width="81" height="78">
<path d="M145.022 225.545C145.022 225.545 140.193 207.837 138.197 203.885C136.201 199.933 124.891 196.285 119.396 204.911C113.901 213.537 118.895 223.349 120.9 230.371C122.904 237.394 135.536 269.131 137.367 273.106C139.199 277.081 142.551 276.146 144.357 275.743C146.163 275.34 196.759 239.446 196.759 239.446L192.767 231.549L153.507 249.28L145.022 225.545Z" fill="white"/>
</mask>
<g mask="url(#mask6_3168_4805)">
<path d="M143.606 264.481C144.888 261.055 146.367 257.689 148.038 254.396C149.887 251.143 139.165 261.882 136.945 256.022C134.724 250.163 120.675 220.887 123.259 211.129C124.379 206.595 127.395 202.597 131.709 199.927C127.587 199.068 122.542 199.98 119.397 204.92C113.91 213.553 118.896 223.357 120.9 230.38C122.905 237.402 135.536 269.14 137.368 273.115C139.2 277.089 142.552 276.155 144.358 275.752C145.688 275.433 172.87 256.334 187.558 245.975L143.606 264.481Z" fill="#D7D7D7"/>
<path opacity="0.5" d="M143.606 264.481C144.888 261.055 146.367 257.689 148.038 254.396C149.887 251.143 139.165 261.882 136.945 256.022C134.724 250.163 120.675 220.887 123.259 211.129C124.379 206.595 127.395 202.597 131.709 199.927C127.587 199.068 122.542 199.98 119.397 204.92C113.91 213.553 118.896 223.357 120.9 230.38C122.905 237.402 135.536 269.14 137.368 273.115C139.2 277.089 142.552 276.155 144.358 275.752C145.688 275.433 172.87 256.334 187.558 245.975L143.606 264.481Z" fill="white"/>
</g>
<path d="M145.022 225.545C145.022 225.545 140.193 207.837 138.197 203.885C136.201 199.933 124.891 196.285 119.396 204.911C113.901 213.537 118.895 223.349 120.9 230.371C122.904 237.394 135.536 269.131 137.367 273.106C139.199 277.081 142.551 276.146 144.357 275.743C146.163 275.34 196.759 239.446 196.759 239.446L192.767 231.549L153.507 249.28L145.022 225.545Z" stroke="#3B464C" stroke-width="0.75" stroke-linecap="round" stroke-linejoin="round"/>
<path d="M186.944 234.476L191.437 242.524" stroke="#3B464C" stroke-width="0.75" stroke-linecap="round" stroke-linejoin="round"/>
<path d="M81.4061 194.097L58.4237 208.119C58.4237 208.119 69.7507 218.652 68.5843 246.286C67.7203 267.391 70.8912 291.354 75.4963 296.225H99.9648C99.9648 296.225 91.5063 255.185 92.1111 231.671C92.5863 213.803 86.4864 201.4 81.4061 194.097Z" fill="white" stroke="#3B464C" stroke-width="0.75" stroke-linecap="round" stroke-linejoin="round"/>
<path d="M84.1709 194.097L61.1885 208.119C61.1885 208.119 72.5155 218.652 71.3405 246.286C70.4765 267.391 73.6474 291.354 78.2525 296.225H102.73C102.73 296.225 94.2797 255.185 94.8845 231.671C95.3424 213.803 89.2426 201.4 84.1709 194.097Z" fill="#3B464C" stroke="#3B464C" stroke-width="0.75" stroke-linecap="round" stroke-linejoin="round"/>
<path d="M81.4061 194.097H84.1709L61.1885 208.119H58.4324L81.4061 194.097Z" fill="white" stroke="#3B464C" stroke-width="0.75" stroke-linecap="round" stroke-linejoin="round"/>
</g>
<path d="M43.8351 386.2H46.2111L40.5231 395.404V403H38.5071V395.404L32.8191 386.2H35.1951L39.5151 393.196L43.8351 386.2ZM51.4064 403.312C50.3024 403.312 49.2944 403.028 48.3824 402.46C47.4784 401.892 46.7544 401.132 46.2104 400.18C45.6744 399.22 45.4064 398.16 45.4064 397C45.4064 396.12 45.5624 395.3 45.8744 394.54C46.1864 393.772 46.6144 393.1 47.1584 392.524C47.7104 391.94 48.3504 391.484 49.0784 391.156C49.8064 390.828 50.5824 390.664 51.4064 390.664C52.5104 390.664 53.5144 390.948 54.4184 391.516C55.3304 392.084 56.0544 392.848 56.5904 393.808C57.1344 394.768 57.4064 395.832 57.4064 397C57.4064 397.872 57.2504 398.688 56.9384 399.448C56.6264 400.208 56.1944 400.88 55.6424 401.464C55.0984 402.04 54.4624 402.492 53.7344 402.82C53.0144 403.148 52.2384 403.312 51.4064 403.312ZM51.4064 401.296C52.1584 401.296 52.8344 401.1 53.4344 400.708C54.0424 400.308 54.5184 399.784 54.8624 399.136C55.2144 398.48 55.3904 397.768 55.3904 397C55.3904 396.216 55.2104 395.496 54.8504 394.84C54.4984 394.184 54.0224 393.66 53.4224 393.268C52.8224 392.876 52.1504 392.68 51.4064 392.68C50.6544 392.68 49.9784 392.88 49.3784 393.28C48.7784 393.672 48.3024 394.196 47.9504 394.852C47.5984 395.508 47.4224 396.224 47.4224 397C47.4224 397.8 47.6024 398.528 47.9624 399.184C48.3224 399.832 48.8064 400.348 49.4144 400.732C50.0224 401.108 50.6864 401.296 51.4064 401.296ZM58.5851 398.44V391H60.6011V397.996C60.6011 398.604 60.7491 399.156 61.0451 399.652C61.3411 400.148 61.7371 400.544 62.2331 400.84C62.7371 401.128 63.2891 401.272 63.8891 401.272C64.4971 401.272 65.0451 401.128 65.5331 400.84C66.0291 400.544 66.4251 400.148 66.7211 399.652C67.0171 399.156 67.1651 398.604 67.1651 397.996V391H69.1811L69.1931 403H67.1771L67.1651 401.476C66.7411 402.036 66.2051 402.484 65.5571 402.82C64.9091 403.148 64.2091 403.312 63.4571 403.312C62.5611 403.312 61.7411 403.096 60.9971 402.664C60.2611 402.224 59.6731 401.636 59.2331 400.9C58.8011 400.164 58.5851 399.344 58.5851 398.44ZM86.7043 385H88.7203V403H86.7043V400.96C86.2963 401.664 85.7483 402.232 85.0603 402.664C84.3723 403.096 83.5643 403.312 82.6363 403.312C81.7643 403.312 80.9483 403.148 80.1883 402.82C79.4283 402.492 78.7563 402.04 78.1723 401.464C77.5963 400.88 77.1443 400.208 76.8163 399.448C76.4883 398.688 76.3243 397.872 76.3243 397C76.3243 396.128 76.4883 395.312 76.8163 394.552C77.1443 393.784 77.5963 393.112 78.1723 392.536C78.7563 391.952 79.4283 391.496 80.1883 391.168C80.9483 390.84 81.7643 390.676 82.6363 390.676C83.5643 390.676 84.3723 390.892 85.0603 391.324C85.7483 391.756 86.2963 392.324 86.7043 393.028V385ZM82.6603 401.356C83.4523 401.356 84.1363 401.164 84.7123 400.78C85.2963 400.388 85.7443 399.86 86.0563 399.196C86.3763 398.532 86.5363 397.8 86.5363 397C86.5363 396.184 86.3763 395.448 86.0563 394.792C85.7363 394.128 85.2843 393.604 84.7003 393.22C84.1243 392.828 83.4443 392.632 82.6603 392.632C81.8683 392.632 81.1483 392.828 80.5003 393.22C79.8603 393.612 79.3483 394.14 78.9643 394.804C78.5803 395.46 78.3883 396.192 78.3883 397C78.3883 397.808 78.5843 398.544 78.9763 399.208C79.3683 399.864 79.8883 400.388 80.5363 400.78C81.1843 401.164 81.8923 401.356 82.6603 401.356ZM96.599 403.312C95.495 403.312 94.487 403.028 93.575 402.46C92.671 401.892 91.947 401.132 91.403 400.18C90.867 399.22 90.599 398.16 90.599 397C90.599 396.12 90.755 395.3 91.067 394.54C91.379 393.772 91.807 393.1 92.351 392.524C92.903 391.94 93.543 391.484 94.271 391.156C94.999 390.828 95.775 390.664 96.599 390.664C97.703 390.664 98.707 390.948 99.611 391.516C100.523 392.084 101.247 392.848 101.783 393.808C102.327 394.768 102.599 395.832 102.599 397C102.599 397.872 102.443 398.688 102.131 399.448C101.819 400.208 101.387 400.88 100.835 401.464C100.291 402.04 99.655 402.492 98.927 402.82C98.207 403.148 97.431 403.312 96.599 403.312ZM96.599 401.296C97.351 401.296 98.027 401.1 98.627 400.708C99.235 400.308 99.711 399.784 100.055 399.136C100.407 398.48 100.583 397.768 100.583 397C100.583 396.216 100.403 395.496 100.043 394.84C99.691 394.184 99.215 393.66 98.615 393.268C98.015 392.876 97.343 392.68 96.599 392.68C95.847 392.68 95.171 392.88 94.571 393.28C93.971 393.672 93.495 394.196 93.143 394.852C92.791 395.508 92.615 396.224 92.615 397C92.615 397.8 92.795 398.528 93.155 399.184C93.515 399.832 93.999 400.348 94.607 400.732C95.215 401.108 95.879 401.296 96.599 401.296ZM120.797 395.536V403H118.781V395.98C118.781 395.372 118.633 394.82 118.337 394.324C118.041 393.828 117.645 393.436 117.149 393.148C116.653 392.852 116.101 392.704 115.493 392.704C114.893 392.704 114.341 392.852 113.837 393.148C113.341 393.436 112.945 393.828 112.649 394.324C112.353 394.82 112.205 395.372 112.205 395.98V403H110.189V391H112.205V392.5C112.629 391.94 113.165 391.496 113.813 391.168C114.461 390.832 115.165 390.664 115.925 390.664C116.821 390.664 117.637 390.884 118.373 391.324C119.117 391.756 119.705 392.34 120.137 393.076C120.577 393.812 120.797 394.632 120.797 395.536ZM128.079 403.312C126.975 403.312 125.967 403.028 125.055 402.46C124.151 401.892 123.427 401.132 122.883 400.18C122.347 399.22 122.079 398.16 122.079 397C122.079 396.12 122.235 395.3 122.547 394.54C122.859 393.772 123.287 393.1 123.831 392.524C124.383 391.94 125.023 391.484 125.751 391.156C126.479 390.828 127.255 390.664 128.079 390.664C129.183 390.664 130.187 390.948 131.091 391.516C132.003 392.084 132.727 392.848 133.263 393.808C133.807 394.768 134.079 395.832 134.079 397C134.079 397.872 133.923 398.688 133.611 399.448C133.299 400.208 132.867 400.88 132.315 401.464C131.771 402.04 131.135 402.492 130.407 402.82C129.687 403.148 128.911 403.312 128.079 403.312ZM128.079 401.296C128.831 401.296 129.507 401.1 130.107 400.708C130.715 400.308 131.191 399.784 131.535 399.136C131.887 398.48 132.063 397.768 132.063 397C132.063 396.216 131.883 395.496 131.523 394.84C131.171 394.184 130.695 393.66 130.095 393.268C129.495 392.876 128.823 392.68 128.079 392.68C127.327 392.68 126.651 392.88 126.051 393.28C125.451 393.672 124.975 394.196 124.623 394.852C124.271 395.508 124.095 396.224 124.095 397C124.095 397.8 124.275 398.528 124.635 399.184C124.995 399.832 125.479 400.348 126.087 400.732C126.695 401.108 127.359 401.296 128.079 401.296ZM141.978 393.016H139.254L139.242 403H137.226L137.238 393.016H135.174V391H137.238L137.226 387.232H139.242L139.254 391H141.978V393.016ZM160.177 395.536V403H158.161V395.98C158.161 395.372 158.013 394.82 157.717 394.324C157.421 393.828 157.025 393.436 156.529 393.148C156.033 392.852 155.481 392.704 154.873 392.704C154.273 392.704 153.721 392.852 153.217 393.148C152.721 393.436 152.325 393.828 152.029 394.324C151.733 394.82 151.585 395.372 151.585 395.98V403H149.569V385H151.585V392.5C152.009 391.94 152.545 391.496 153.193 391.168C153.841 390.832 154.545 390.664 155.305 390.664C156.201 390.664 157.017 390.884 157.753 391.324C158.497 391.756 159.085 392.34 159.517 393.076C159.957 393.812 160.177 394.632 160.177 395.536ZM171.828 391H173.844V403H171.828L171.744 400.972C171.368 401.668 170.848 402.232 170.184 402.664C169.528 403.096 168.744 403.312 167.832 403.312C166.952 403.312 166.128 403.148 165.36 402.82C164.592 402.484 163.912 402.024 163.32 401.44C162.736 400.848 162.28 400.168 161.952 399.4C161.624 398.632 161.46 397.804 161.46 396.916C161.46 396.06 161.62 395.252 161.94 394.492C162.26 393.732 162.704 393.068 163.272 392.5C163.848 391.924 164.512 391.476 165.264 391.156C166.016 390.828 166.824 390.664 167.688 390.664C168.632 390.664 169.46 390.888 170.172 391.336C170.884 391.776 171.46 392.348 171.9 393.052L171.828 391ZM167.796 401.356C168.588 401.356 169.272 401.164 169.848 400.78C170.432 400.388 170.88 399.86 171.192 399.196C171.512 398.532 171.672 397.8 171.672 397C171.672 396.184 171.512 395.448 171.192 394.792C170.872 394.128 170.42 393.604 169.836 393.22C169.26 392.828 168.58 392.632 167.796 392.632C167.004 392.632 166.284 392.828 165.636 393.22C164.988 393.612 164.472 394.14 164.088 394.804C163.712 395.46 163.524 396.192 163.524 397C163.524 397.808 163.72 398.544 164.112 399.208C164.504 399.864 165.024 400.388 165.672 400.78C166.32 401.164 167.028 401.356 167.796 401.356ZM181.991 403H179.411L175.031 390.976H177.179L180.695 400.66L184.211 390.976H186.359L181.991 403ZM192.962 403.312C191.858 403.312 190.85 403.028 189.938 402.46C189.034 401.892 188.31 401.132 187.766 400.18C187.23 399.22 186.962 398.16 186.962 397C186.962 396.12 187.118 395.3 187.43 394.54C187.742 393.772 188.17 393.1 188.714 392.524C189.266 391.94 189.906 391.484 190.634 391.156C191.362 390.828 192.138 390.664 192.962 390.664C193.866 390.664 194.694 390.848 195.446 391.216C196.206 391.576 196.854 392.08 197.39 392.728C197.934 393.376 198.338 394.128 198.602 394.984C198.874 395.84 198.974 396.756 198.902 397.732H189.11C189.206 398.412 189.43 399.02 189.782 399.556C190.134 400.084 190.582 400.504 191.126 400.816C191.678 401.128 192.29 401.288 192.962 401.296C193.682 401.296 194.334 401.112 194.918 400.744C195.502 400.368 195.974 399.856 196.334 399.208L198.386 399.688C197.906 400.752 197.182 401.624 196.214 402.304C195.246 402.976 194.162 403.312 192.962 403.312ZM189.05 396.148H196.874C196.81 395.476 196.594 394.864 196.226 394.312C195.858 393.752 195.39 393.304 194.822 392.968C194.254 392.632 193.634 392.464 192.962 392.464C192.29 392.464 191.674 392.628 191.114 392.956C190.554 393.284 190.09 393.728 189.722 394.288C189.362 394.84 189.138 395.46 189.05 396.148ZM216.177 391H218.193V403H216.177L216.093 400.972C215.717 401.668 215.197 402.232 214.533 402.664C213.877 403.096 213.093 403.312 212.181 403.312C211.301 403.312 210.477 403.148 209.709 402.82C208.941 402.484 208.261 402.024 207.669 401.44C207.085 400.848 206.629 400.168 206.301 399.4C205.973 398.632 205.809 397.804 205.809 396.916C205.809 396.06 205.969 395.252 206.289 394.492C206.609 393.732 207.053 393.068 207.621 392.5C208.197 391.924 208.861 391.476 209.613 391.156C210.365 390.828 211.173 390.664 212.037 390.664C212.981 390.664 213.809 390.888 214.521 391.336C215.233 391.776 215.809 392.348 216.249 393.052L216.177 391ZM212.145 401.356C212.937 401.356 213.621 401.164 214.197 400.78C214.781 400.388 215.229 399.86 215.541 399.196C215.861 398.532 216.021 397.8 216.021 397C216.021 396.184 215.861 395.448 215.541 394.792C215.221 394.128 214.769 393.604 214.185 393.22C213.609 392.828 212.929 392.632 212.145 392.632C211.353 392.632 210.633 392.828 209.985 393.22C209.337 393.612 208.821 394.14 208.437 394.804C208.061 395.46 207.873 396.192 207.873 397C207.873 397.808 208.069 398.544 208.461 399.208C208.853 399.864 209.373 400.388 210.021 400.78C210.669 401.164 211.377 401.356 212.145 401.356ZM228.462 399.832L230.262 400.804C229.718 401.564 229.026 402.172 228.186 402.628C227.354 403.084 226.45 403.312 225.474 403.312C224.37 403.312 223.362 403.028 222.45 402.46C221.546 401.892 220.822 401.132 220.278 400.18C219.742 399.22 219.474 398.16 219.474 397C219.474 396.12 219.63 395.3 219.942 394.54C220.254 393.772 220.682 393.1 221.226 392.524C221.778 391.94 222.418 391.484 223.146 391.156C223.874 390.828 224.65 390.664 225.474 390.664C226.45 390.664 227.354 390.892 228.186 391.348C229.026 391.804 229.718 392.416 230.262 393.184L228.462 394.156C228.078 393.684 227.622 393.32 227.094 393.064C226.566 392.808 226.026 392.68 225.474 392.68C224.73 392.68 224.054 392.88 223.446 393.28C222.846 393.672 222.37 394.196 222.018 394.852C221.666 395.508 221.49 396.224 221.49 397C221.49 397.776 221.666 398.492 222.018 399.148C222.378 399.796 222.858 400.316 223.458 400.708C224.066 401.1 224.738 401.296 225.474 401.296C226.066 401.296 226.622 401.16 227.142 400.888C227.662 400.616 228.102 400.264 228.462 399.832ZM240.323 399.832L242.123 400.804C241.579 401.564 240.887 402.172 240.047 402.628C239.215 403.084 238.311 403.312 237.335 403.312C236.231 403.312 235.223 403.028 234.311 402.46C233.407 401.892 232.683 401.132 232.139 400.18C231.603 399.22 231.335 398.16 231.335 397C231.335 396.12 231.491 395.3 231.803 394.54C232.115 393.772 232.543 393.1 233.087 392.524C233.639 391.94 234.279 391.484 235.007 391.156C235.735 390.828 236.511 390.664 237.335 390.664C238.311 390.664 239.215 390.892 240.047 391.348C240.887 391.804 241.579 392.416 242.123 393.184L240.323 394.156C239.939 393.684 239.483 393.32 238.955 393.064C238.427 392.808 237.887 392.68 237.335 392.68C236.591 392.68 235.915 392.88 235.307 393.28C234.707 393.672 234.231 394.196 233.879 394.852C233.527 395.508 233.351 396.224 233.351 397C233.351 397.776 233.527 398.492 233.879 399.148C234.239 399.796 234.719 400.316 235.319 400.708C235.927 401.1 236.599 401.296 237.335 401.296C237.927 401.296 238.483 401.16 239.003 400.888C239.523 400.616 239.963 400.264 240.323 399.832ZM249.195 403.312C248.091 403.312 247.083 403.028 246.171 402.46C245.267 401.892 244.543 401.132 243.999 400.18C243.463 399.22 243.195 398.16 243.195 397C243.195 396.12 243.351 395.3 243.663 394.54C243.975 393.772 244.403 393.1 244.947 392.524C245.499 391.94 246.139 391.484 246.867 391.156C247.595 390.828 248.371 390.664 249.195 390.664C250.099 390.664 250.927 390.848 251.679 391.216C252.439 391.576 253.087 392.08 253.623 392.728C254.167 393.376 254.571 394.128 254.835 394.984C255.107 395.84 255.207 396.756 255.135 397.732H245.343C245.439 398.412 245.663 399.02 246.015 399.556C246.367 400.084 246.815 400.504 247.359 400.816C247.911 401.128 248.523 401.288 249.195 401.296C249.915 401.296 250.567 401.112 251.151 400.744C251.735 400.368 252.207 399.856 252.567 399.208L254.619 399.688C254.139 400.752 253.415 401.624 252.447 402.304C251.479 402.976 250.395 403.312 249.195 403.312ZM245.283 396.148H253.107C253.043 395.476 252.827 394.864 252.459 394.312C252.091 393.752 251.623 393.304 251.055 392.968C250.487 392.632 249.867 392.464 249.195 392.464C248.523 392.464 247.907 392.628 247.347 392.956C246.787 393.284 246.323 393.728 245.955 394.288C245.595 394.84 245.371 395.46 245.283 396.148ZM260.702 403.228C260.054 403.204 259.422 403.084 258.806 402.868C258.198 402.644 257.662 402.344 257.198 401.968C256.742 401.584 256.41 401.144 256.202 400.648L257.93 399.904C258.05 400.176 258.266 400.432 258.578 400.672C258.89 400.912 259.25 401.104 259.658 401.248C260.066 401.392 260.478 401.464 260.894 401.464C261.334 401.464 261.746 401.396 262.13 401.26C262.514 401.124 262.826 400.924 263.066 400.66C263.314 400.388 263.438 400.064 263.438 399.688C263.438 399.288 263.302 398.976 263.03 398.752C262.766 398.52 262.43 398.34 262.022 398.212C261.622 398.076 261.214 397.948 260.798 397.828C259.974 397.62 259.238 397.372 258.59 397.084C257.942 396.788 257.43 396.416 257.054 395.968C256.686 395.512 256.502 394.932 256.502 394.228C256.502 393.484 256.706 392.84 257.114 392.296C257.53 391.752 258.074 391.332 258.746 391.036C259.418 390.74 260.138 390.592 260.906 390.592C261.874 390.592 262.758 390.8 263.558 391.216C264.358 391.632 264.954 392.196 265.346 392.908L263.726 393.856C263.59 393.568 263.382 393.316 263.102 393.1C262.822 392.876 262.502 392.7 262.142 392.572C261.782 392.444 261.414 392.376 261.038 392.368C260.574 392.352 260.138 392.412 259.73 392.548C259.33 392.684 259.006 392.892 258.758 393.172C258.518 393.444 258.398 393.784 258.398 394.192C258.398 394.592 258.526 394.896 258.782 395.104C259.046 395.312 259.386 395.48 259.802 395.608C260.226 395.728 260.686 395.868 261.182 396.028C261.91 396.26 262.59 396.528 263.222 396.832C263.854 397.136 264.362 397.516 264.746 397.972C265.138 398.428 265.33 398.992 265.322 399.664C265.322 400.4 265.102 401.044 264.662 401.596C264.222 402.14 263.65 402.556 262.946 402.844C262.25 403.132 261.502 403.26 260.702 403.228ZM270.875 403.228C270.227 403.204 269.595 403.084 268.979 402.868C268.371 402.644 267.835 402.344 267.371 401.968C266.915 401.584 266.583 401.144 266.375 400.648L268.103 399.904C268.223 400.176 268.439 400.432 268.751 400.672C269.063 400.912 269.423 401.104 269.831 401.248C270.239 401.392 270.651 401.464 271.067 401.464C271.507 401.464 271.919 401.396 272.303 401.26C272.687 401.124 272.999 400.924 273.239 400.66C273.487 400.388 273.611 400.064 273.611 399.688C273.611 399.288 273.475 398.976 273.203 398.752C272.939 398.52 272.603 398.34 272.195 398.212C271.795 398.076 271.387 397.948 270.971 397.828C270.147 397.62 269.411 397.372 268.763 397.084C268.115 396.788 267.603 396.416 267.227 395.968C266.859 395.512 266.675 394.932 266.675 394.228C266.675 393.484 266.879 392.84 267.287 392.296C267.703 391.752 268.247 391.332 268.919 391.036C269.591 390.74 270.311 390.592 271.079 390.592C272.047 390.592 272.931 390.8 273.731 391.216C274.531 391.632 275.127 392.196 275.519 392.908L273.899 393.856C273.763 393.568 273.555 393.316 273.275 393.1C272.995 392.876 272.675 392.7 272.315 392.572C271.955 392.444 271.587 392.376 271.211 392.368C270.747 392.352 270.311 392.412 269.903 392.548C269.503 392.684 269.179 392.892 268.931 393.172C268.691 393.444 268.571 393.784 268.571 394.192C268.571 394.592 268.699 394.896 268.955 395.104C269.219 395.312 269.559 395.48 269.975 395.608C270.399 395.728 270.859 395.868 271.355 396.028C272.083 396.26 272.763 396.528 273.395 396.832C274.027 397.136 274.535 397.516 274.919 397.972C275.311 398.428 275.503 398.992 275.495 399.664C275.495 400.4 275.275 401.044 274.835 401.596C274.395 402.14 273.823 402.556 273.119 402.844C272.423 403.132 271.675 403.26 270.875 403.228ZM289.207 393.016H286.483L286.471 403H284.455L284.467 393.016H282.403V391H284.467L284.455 387.232H286.471L286.483 391H289.207V393.016ZM296.17 403.312C295.066 403.312 294.058 403.028 293.146 402.46C292.242 401.892 291.518 401.132 290.974 400.18C290.438 399.22 290.17 398.16 290.17 397C290.17 396.12 290.326 395.3 290.638 394.54C290.95 393.772 291.378 393.1 291.922 392.524C292.474 391.94 293.114 391.484 293.842 391.156C294.57 390.828 295.346 390.664 296.17 390.664C297.274 390.664 298.278 390.948 299.182 391.516C300.094 392.084 300.818 392.848 301.354 393.808C301.898 394.768 302.17 395.832 302.17 397C302.17 397.872 302.014 398.688 301.702 399.448C301.39 400.208 300.958 400.88 300.406 401.464C299.862 402.04 299.226 402.492 298.498 402.82C297.778 403.148 297.002 403.312 296.17 403.312ZM296.17 401.296C296.922 401.296 297.598 401.1 298.198 400.708C298.806 400.308 299.282 399.784 299.626 399.136C299.978 398.48 300.154 397.768 300.154 397C300.154 396.216 299.974 395.496 299.614 394.84C299.262 394.184 298.786 393.66 298.186 393.268C297.586 392.876 296.914 392.68 296.17 392.68C295.418 392.68 294.742 392.88 294.142 393.28C293.542 393.672 293.066 394.196 292.714 394.852C292.362 395.508 292.186 396.224 292.186 397C292.186 397.8 292.366 398.528 292.726 399.184C293.086 399.832 293.57 400.348 294.178 400.732C294.786 401.108 295.45 401.296 296.17 401.296ZM315.976 393.016H313.252L313.24 403H311.224L311.236 393.016H309.172V391H311.236L311.224 387.232H313.24L313.252 391H315.976V393.016ZM328.573 395.536V403H326.557V395.98C326.557 395.372 326.409 394.82 326.113 394.324C325.817 393.828 325.421 393.436 324.925 393.148C324.429 392.852 323.877 392.704 323.269 392.704C322.669 392.704 322.117 392.852 321.613 393.148C321.117 393.436 320.721 393.828 320.425 394.324C320.129 394.82 319.981 395.372 319.981 395.98V403H317.965V385H319.981V392.5C320.405 391.94 320.941 391.496 321.589 391.168C322.237 390.832 322.941 390.664 323.701 390.664C324.597 390.664 325.413 390.884 326.149 391.324C326.893 391.756 327.481 392.34 327.913 393.076C328.353 393.812 328.573 394.632 328.573 395.536ZM330.81 391H332.826V403H330.81V391ZM331.842 389.044C331.522 389.044 331.254 388.94 331.038 388.732C330.822 388.524 330.714 388.264 330.714 387.952C330.714 387.64 330.822 387.38 331.038 387.172C331.254 386.964 331.518 386.86 331.83 386.86C332.142 386.86 332.406 386.964 332.622 387.172C332.838 387.38 332.946 387.64 332.946 387.952C332.946 388.264 332.838 388.524 332.622 388.732C332.414 388.94 332.154 389.044 331.842 389.044ZM339.088 403.228C338.44 403.204 337.808 403.084 337.192 402.868C336.584 402.644 336.048 402.344 335.584 401.968C335.128 401.584 334.796 401.144 334.588 400.648L336.316 399.904C336.436 400.176 336.652 400.432 336.964 400.672C337.276 400.912 337.636 401.104 338.044 401.248C338.452 401.392 338.864 401.464 339.28 401.464C339.72 401.464 340.132 401.396 340.516 401.26C340.9 401.124 341.212 400.924 341.452 400.66C341.7 400.388 341.824 400.064 341.824 399.688C341.824 399.288 341.688 398.976 341.416 398.752C341.152 398.52 340.816 398.34 340.408 398.212C340.008 398.076 339.6 397.948 339.184 397.828C338.36 397.62 337.624 397.372 336.976 397.084C336.328 396.788 335.816 396.416 335.44 395.968C335.072 395.512 334.888 394.932 334.888 394.228C334.888 393.484 335.092 392.84 335.5 392.296C335.916 391.752 336.46 391.332 337.132 391.036C337.804 390.74 338.524 390.592 339.292 390.592C340.26 390.592 341.144 390.8 341.944 391.216C342.744 391.632 343.34 392.196 343.732 392.908L342.112 393.856C341.976 393.568 341.768 393.316 341.488 393.1C341.208 392.876 340.888 392.7 340.528 392.572C340.168 392.444 339.8 392.376 339.424 392.368C338.96 392.352 338.524 392.412 338.116 392.548C337.716 392.684 337.392 392.892 337.144 393.172C336.904 393.444 336.784 393.784 336.784 394.192C336.784 394.592 336.912 394.896 337.168 395.104C337.432 395.312 337.772 395.48 338.188 395.608C338.612 395.728 339.072 395.868 339.568 396.028C340.296 396.26 340.976 396.528 341.608 396.832C342.24 397.136 342.748 397.516 343.132 397.972C343.524 398.428 343.716 398.992 343.708 399.664C343.708 400.4 343.488 401.044 343.048 401.596C342.608 402.14 342.036 402.556 341.332 402.844C340.636 403.132 339.888 403.26 339.088 403.228ZM360.864 385H362.88V403H360.864V400.96C360.456 401.664 359.908 402.232 359.22 402.664C358.532 403.096 357.724 403.312 356.796 403.312C355.924 403.312 355.108 403.148 354.348 402.82C353.588 402.492 352.916 402.04 352.332 401.464C351.756 400.88 351.304 400.208 350.976 399.448C350.648 398.688 350.484 397.872 350.484 397C350.484 396.128 350.648 395.312 350.976 394.552C351.304 393.784 351.756 393.112 352.332 392.536C352.916 391.952 353.588 391.496 354.348 391.168C355.108 390.84 355.924 390.676 356.796 390.676C357.724 390.676 358.532 390.892 359.22 391.324C359.908 391.756 360.456 392.324 360.864 393.028V385ZM356.82 401.356C357.612 401.356 358.296 401.164 358.872 400.78C359.456 400.388 359.904 399.86 360.216 399.196C360.536 398.532 360.696 397.8 360.696 397C360.696 396.184 360.536 395.448 360.216 394.792C359.896 394.128 359.444 393.604 358.86 393.22C358.284 392.828 357.604 392.632 356.82 392.632C356.028 392.632 355.308 392.828 354.66 393.22C354.02 393.612 353.508 394.14 353.124 394.804C352.74 395.46 352.548 396.192 352.548 397C352.548 397.808 352.744 398.544 353.136 399.208C353.528 399.864 354.048 400.388 354.696 400.78C355.344 401.164 356.052 401.356 356.82 401.356ZM375.127 391H377.143V403H375.127L375.043 400.972C374.667 401.668 374.147 402.232 373.483 402.664C372.827 403.096 372.043 403.312 371.131 403.312C370.251 403.312 369.427 403.148 368.659 402.82C367.891 402.484 367.211 402.024 366.619 401.44C366.035 400.848 365.579 400.168 365.251 399.4C364.923 398.632 364.759 397.804 364.759 396.916C364.759 396.06 364.919 395.252 365.239 394.492C365.559 393.732 366.003 393.068 366.571 392.5C367.147 391.924 367.811 391.476 368.563 391.156C369.315 390.828 370.123 390.664 370.987 390.664C371.931 390.664 372.759 390.888 373.471 391.336C374.183 391.776 374.759 392.348 375.199 393.052L375.127 391ZM371.095 401.356C371.887 401.356 372.571 401.164 373.147 400.78C373.731 400.388 374.179 399.86 374.491 399.196C374.811 398.532 374.971 397.8 374.971 397C374.971 396.184 374.811 395.448 374.491 394.792C374.171 394.128 373.719 393.604 373.135 393.22C372.559 392.828 371.879 392.632 371.095 392.632C370.303 392.632 369.583 392.828 368.935 393.22C368.287 393.612 367.771 394.14 367.387 394.804C367.011 395.46 366.823 396.192 366.823 397C366.823 397.808 367.019 398.544 367.411 399.208C367.803 399.864 368.323 400.388 368.971 400.78C369.619 401.164 370.327 401.356 371.095 401.356ZM385.595 393.016H382.871L382.859 403H380.843L380.855 393.016H378.791V391H380.855L380.843 387.232H382.859L382.871 391H385.595V393.016ZM396.926 391H398.942V403H396.926L396.842 400.972C396.466 401.668 395.946 402.232 395.282 402.664C394.626 403.096 393.842 403.312 392.93 403.312C392.05 403.312 391.226 403.148 390.458 402.82C389.69 402.484 389.01 402.024 388.418 401.44C387.834 400.848 387.378 400.168 387.05 399.4C386.722 398.632 386.558 397.804 386.558 396.916C386.558 396.06 386.718 395.252 387.038 394.492C387.358 393.732 387.802 393.068 388.37 392.5C388.946 391.924 389.61 391.476 390.362 391.156C391.114 390.828 391.922 390.664 392.786 390.664C393.73 390.664 394.558 390.888 395.27 391.336C395.982 391.776 396.558 392.348 396.998 393.052L396.926 391ZM392.894 401.356C393.686 401.356 394.37 401.164 394.946 400.78C395.53 400.388 395.978 399.86 396.29 399.196C396.61 398.532 396.77 397.8 396.77 397C396.77 396.184 396.61 395.448 396.29 394.792C395.97 394.128 395.518 393.604 394.934 393.22C394.358 392.828 393.678 392.632 392.894 392.632C392.102 392.632 391.382 392.828 390.734 393.22C390.086 393.612 389.57 394.14 389.186 394.804C388.81 395.46 388.622 396.192 388.622 397C388.622 397.808 388.818 398.544 389.21 399.208C389.602 399.864 390.122 400.388 390.77 400.78C391.418 401.164 392.126 401.356 392.894 401.356Z" fill="#636363"/>
</svg>
