<svg width="412" height="409" viewBox="0 0 412 409" fill="none" xmlns="http://www.w3.org/2000/svg">
<path d="M206 324.946C287.383 324.946 353.356 321.094 353.356 316.342C353.356 311.591 287.383 307.739 206 307.739C124.617 307.739 58.6436 311.591 58.6436 316.342C58.6436 321.094 124.617 324.946 206 324.946Z" fill="#EAEAEA"/>
<path d="M95.1302 153.793L94.3721 153.848L95.3817 167.864L96.1398 167.809L95.1302 153.793Z" fill="#AFAFAF"/>
<path d="M96.6548 175.045L95.8967 175.1L96.2768 180.376L97.0348 180.321L96.6548 175.045Z" fill="#AFAFAF"/>
<path d="M272.66 239.522H109.898C108.086 239.489 106.351 238.787 105.026 237.551C103.701 236.315 102.881 234.632 102.724 232.826L94.7284 121.768C94.654 120.911 94.7599 120.048 95.0392 119.235C95.3184 118.422 95.7649 117.677 96.3499 117.047C96.9348 116.417 97.6453 115.916 98.4354 115.577C99.2256 115.238 100.078 115.069 100.938 115.08H263.699C265.51 115.112 267.244 115.813 268.569 117.048C269.893 118.283 270.714 119.964 270.874 121.768L278.869 232.826C278.943 233.683 278.837 234.546 278.558 235.36C278.279 236.173 277.832 236.919 277.248 237.55C276.663 238.181 275.952 238.682 275.162 239.021C274.372 239.361 273.52 239.532 272.66 239.522Z" fill="#AFAFAF"/>
<path d="M273.283 239.522H110.521C108.709 239.489 106.974 238.787 105.649 237.551C104.324 236.315 103.504 234.632 103.347 232.826L95.3516 121.768C95.2772 120.911 95.3831 120.048 95.6624 119.235C95.9417 118.422 96.3881 117.677 96.9731 117.047C97.558 116.417 98.2685 115.916 99.0586 115.577C99.8488 115.238 100.701 115.069 101.561 115.08H264.322C266.133 115.112 267.868 115.813 269.192 117.048C270.517 118.283 271.338 119.964 271.497 121.768L279.492 232.826C279.568 233.683 279.462 234.547 279.184 235.361C278.905 236.175 278.459 236.921 277.874 237.552C277.289 238.183 276.578 238.685 275.787 239.024C274.996 239.363 274.143 239.533 273.283 239.522Z" fill="#AFAFAF"/>
<path opacity="0.5" d="M273.283 239.522H110.521C108.709 239.489 106.974 238.787 105.649 237.551C104.324 236.315 103.504 234.632 103.347 232.826L95.3516 121.768C95.2772 120.911 95.3831 120.048 95.6624 119.235C95.9417 118.422 96.3881 117.677 96.9731 117.047C97.558 116.417 98.2685 115.916 99.0586 115.577C99.8488 115.238 100.701 115.069 101.561 115.08H264.322C266.133 115.112 267.868 115.813 269.192 117.048C270.517 118.283 271.338 119.964 271.497 121.768L279.492 232.826C279.568 233.683 279.462 234.547 279.184 235.361C278.905 236.175 278.459 236.921 277.874 237.552C277.288 238.183 276.578 238.684 275.787 239.024C274.996 239.363 274.143 239.533 273.283 239.522Z" fill="white"/>
<path d="M264.566 118.424H101.804H101.257C97.0996 118.766 97.9508 125.097 102.146 125.097H265.181C269.384 125.097 269.323 118.766 265.113 118.424H264.566Z" fill="#AFAFAF"/>
<path d="M106.045 121.767C106.061 121.963 106.036 122.16 105.971 122.346C105.906 122.531 105.803 122.701 105.668 122.844C105.533 122.988 105.37 123.101 105.189 123.177C105.008 123.254 104.813 123.291 104.616 123.287C104.203 123.281 103.807 123.123 103.504 122.842C103.2 122.562 103.012 122.179 102.974 121.767C102.959 121.572 102.984 121.375 103.048 121.19C103.113 121.005 103.215 120.836 103.349 120.693C103.483 120.55 103.645 120.436 103.825 120.359C104.005 120.283 104.2 120.244 104.396 120.247C104.81 120.251 105.208 120.409 105.513 120.69C105.818 120.971 106.007 121.355 106.045 121.767Z" fill="#FAFAFA"/>
<path d="M111.266 121.767C111.282 121.963 111.257 122.16 111.192 122.346C111.127 122.531 111.024 122.701 110.889 122.844C110.754 122.988 110.591 123.101 110.41 123.177C110.229 123.254 110.034 123.291 109.837 123.287C109.424 123.281 109.028 123.123 108.725 122.842C108.422 122.562 108.233 122.179 108.196 121.767C108.18 121.572 108.205 121.375 108.269 121.19C108.334 121.005 108.436 120.836 108.57 120.693C108.704 120.55 108.866 120.436 109.046 120.359C109.227 120.283 109.421 120.244 109.617 120.247C110.031 120.251 110.429 120.409 110.734 120.69C111.039 120.971 111.228 121.355 111.266 121.767Z" fill="#FAFAFA"/>
<path d="M116.48 121.767C116.496 121.963 116.47 122.159 116.406 122.344C116.341 122.529 116.239 122.699 116.105 122.842C115.971 122.985 115.809 123.098 115.629 123.175C115.449 123.252 115.254 123.29 115.058 123.287C114.645 123.283 114.248 123.125 113.944 122.844C113.641 122.563 113.453 122.179 113.417 121.767C113.4 121.572 113.424 121.375 113.488 121.189C113.552 121.004 113.654 120.834 113.788 120.69C113.922 120.547 114.085 120.433 114.266 120.357C114.447 120.281 114.642 120.243 114.838 120.247C115.251 120.253 115.647 120.412 115.95 120.692C116.254 120.973 116.442 121.356 116.48 121.767Z" fill="#FAFAFA"/>
<path d="M268.966 228.442H113.28C112.622 228.431 111.992 228.176 111.512 227.726C111.032 227.277 110.735 226.665 110.681 226.01L104.107 134.68C104.078 134.367 104.115 134.051 104.218 133.753C104.32 133.456 104.484 133.183 104.7 132.954C104.915 132.724 105.177 132.544 105.468 132.423C105.759 132.303 106.072 132.246 106.387 132.256H262.111C262.768 132.265 263.398 132.518 263.878 132.966C264.359 133.415 264.655 134.026 264.71 134.68L271.292 226.01C271.32 226.327 271.28 226.647 271.175 226.948C271.07 227.249 270.901 227.523 270.681 227.754C270.461 227.984 270.194 228.165 269.898 228.283C269.602 228.402 269.284 228.456 268.966 228.442Z" fill="white"/>
<path d="M203.363 193.648L200.824 158.445L193.148 153.824H172.013L174.886 193.648H203.363Z" fill="white"/>
<path d="M203.363 194.013H174.886C174.791 194.016 174.7 193.981 174.631 193.917C174.561 193.854 174.519 193.765 174.513 193.671L171.648 153.847C171.644 153.797 171.651 153.747 171.668 153.7C171.685 153.653 171.712 153.61 171.747 153.574C171.78 153.536 171.821 153.506 171.867 153.485C171.913 153.464 171.962 153.453 172.013 153.452H193.148C193.215 153.454 193.28 153.473 193.338 153.505L201.014 158.126C201.066 158.156 201.11 158.198 201.141 158.248C201.173 158.298 201.192 158.356 201.197 158.415L203.72 193.618C203.725 193.669 203.719 193.721 203.702 193.77C203.685 193.818 203.657 193.863 203.621 193.899C203.588 193.935 203.548 193.963 203.504 193.983C203.459 194.003 203.411 194.013 203.363 194.013ZM175.243 193.253H202.96L200.467 158.635L193.08 154.189H172.408L175.243 193.253Z" fill="#AFAFAF"/>
<path d="M200.824 158.445L193.148 153.824L195.968 159.95L200.824 158.445Z" fill="#EBEBEB"/>
<path d="M195.968 160.315C195.898 160.315 195.829 160.294 195.77 160.257C195.711 160.219 195.664 160.165 195.634 160.102L192.814 153.977C192.781 153.905 192.772 153.824 192.787 153.747C192.802 153.669 192.84 153.598 192.898 153.543C192.958 153.492 193.033 153.46 193.112 153.454C193.191 153.447 193.27 153.465 193.338 153.505L201.014 158.126C201.076 158.163 201.126 158.217 201.159 158.282C201.191 158.347 201.204 158.419 201.197 158.491C201.187 158.561 201.158 158.627 201.112 158.68C201.066 158.734 201.006 158.774 200.938 158.795L196.074 160.315H195.968ZM193.984 154.752L196.166 159.502L199.966 158.339L193.984 154.752Z" fill="#AFAFAF"/>
<path d="M183.96 171.761C183.971 171.967 183.94 172.174 183.869 172.368C183.798 172.562 183.688 172.74 183.545 172.89C183.403 173.04 183.232 173.159 183.042 173.241C182.851 173.323 182.647 173.364 182.44 173.364C182.006 173.356 181.59 173.188 181.273 172.892C180.956 172.596 180.76 172.193 180.722 171.761C180.703 171.552 180.728 171.341 180.796 171.143C180.864 170.945 180.974 170.764 181.118 170.611C181.262 170.459 181.436 170.339 181.63 170.259C181.824 170.179 182.033 170.142 182.242 170.149C182.677 170.159 183.093 170.329 183.41 170.626C183.727 170.924 183.923 171.328 183.96 171.761Z" fill="#AFAFAF"/>
<path d="M194.372 171.761C194.39 171.969 194.364 172.178 194.296 172.376C194.227 172.573 194.117 172.753 193.973 172.905C193.83 173.057 193.655 173.176 193.462 173.255C193.269 173.334 193.061 173.371 192.852 173.364C192.417 173.357 192.001 173.189 191.682 172.893C191.364 172.597 191.166 172.194 191.127 171.761C191.114 171.553 191.144 171.346 191.215 171.151C191.286 170.956 191.396 170.777 191.538 170.626C191.681 170.475 191.853 170.355 192.043 170.273C192.234 170.191 192.439 170.149 192.647 170.149C193.083 170.155 193.502 170.324 193.821 170.622C194.14 170.92 194.336 171.326 194.372 171.761Z" fill="#AFAFAF"/>
<path d="M197.321 182.203C197.228 182.201 197.14 182.165 197.072 182.102C197.005 182.039 196.964 181.953 196.956 181.861C196.766 179.269 192.708 177.164 187.912 177.164C184.728 177.164 181.87 178.114 180.456 179.634C180.166 179.914 179.939 180.253 179.789 180.627C179.64 181.002 179.572 181.405 179.59 181.808C179.593 181.857 179.587 181.908 179.571 181.955C179.555 182.002 179.53 182.046 179.498 182.084C179.431 182.16 179.337 182.207 179.237 182.214C179.136 182.221 179.036 182.188 178.96 182.122C178.884 182.055 178.837 181.962 178.83 181.861C178.807 181.357 178.89 180.854 179.074 180.384C179.257 179.914 179.536 179.488 179.894 179.132C181.414 177.468 184.507 176.427 187.889 176.427C193.156 176.427 197.45 178.79 197.663 181.808C197.666 181.855 197.659 181.904 197.644 181.949C197.628 181.994 197.604 182.036 197.572 182.072C197.541 182.108 197.502 182.138 197.459 182.159C197.416 182.18 197.369 182.192 197.321 182.195V182.203Z" fill="#AFAFAF"/>
<path d="M178.009 168.508C177.916 168.506 177.827 168.471 177.758 168.409C177.689 168.339 177.65 168.245 177.65 168.147C177.65 168.049 177.689 167.954 177.758 167.885L179.377 166.144C179.447 166.077 179.539 166.04 179.636 166.04C179.732 166.04 179.825 166.077 179.894 166.144C179.928 166.178 179.955 166.218 179.973 166.263C179.992 166.307 180.001 166.355 180.001 166.403C180.001 166.451 179.992 166.498 179.973 166.543C179.955 166.587 179.928 166.627 179.894 166.661L178.275 168.401C178.24 168.436 178.199 168.464 178.153 168.482C178.107 168.5 178.058 168.509 178.009 168.508Z" fill="#AFAFAF"/>
<path d="M196.561 168.508C196.468 168.504 196.38 168.469 196.31 168.409L194.448 166.669C194.413 166.635 194.385 166.594 194.366 166.549C194.347 166.504 194.337 166.455 194.337 166.406C194.337 166.358 194.347 166.309 194.366 166.264C194.385 166.219 194.413 166.178 194.448 166.144C194.517 166.077 194.61 166.04 194.706 166.04C194.803 166.04 194.895 166.077 194.965 166.144L196.827 167.885C196.861 167.919 196.888 167.959 196.906 168.003C196.925 168.048 196.934 168.095 196.934 168.143C196.934 168.191 196.925 168.239 196.906 168.283C196.888 168.327 196.861 168.368 196.827 168.401C196.754 168.469 196.66 168.507 196.561 168.508Z" fill="#AFAFAF"/>
<path d="M169.718 201.515H171.435L173.913 204.813L173.677 201.515H175.41L175.836 207.473H174.08L171.618 204.197L171.853 207.473H170.12L169.718 201.515Z" fill="#AFAFAF"/>
<path d="M176.611 204.494C176.552 204.089 176.58 203.677 176.693 203.284C176.805 202.891 177 202.526 177.264 202.214C177.553 201.93 177.899 201.71 178.279 201.57C178.659 201.43 179.064 201.372 179.468 201.401C180.325 201.354 181.166 201.64 181.817 202.199C182.413 202.792 182.758 203.592 182.782 204.433C182.845 205.013 182.766 205.6 182.554 206.143C182.357 206.581 182.027 206.945 181.612 207.184C181.113 207.452 180.551 207.58 179.985 207.557C179.404 207.575 178.825 207.466 178.29 207.237C177.822 207.012 177.427 206.659 177.15 206.219C176.824 205.7 176.638 205.106 176.611 204.494ZM178.458 204.494C178.45 204.96 178.6 205.415 178.883 205.786C179.002 205.916 179.148 206.02 179.311 206.088C179.473 206.156 179.649 206.188 179.826 206.181C179.994 206.193 180.163 206.164 180.318 206.096C180.472 206.029 180.609 205.925 180.715 205.793C180.933 205.378 181.005 204.902 180.92 204.441C180.923 203.994 180.773 203.559 180.494 203.209C180.373 203.081 180.225 202.98 180.061 202.913C179.897 202.846 179.721 202.815 179.544 202.822C179.379 202.815 179.214 202.847 179.064 202.915C178.913 202.984 178.781 203.087 178.678 203.217C178.455 203.609 178.377 204.066 178.458 204.509V204.494Z" fill="#AFAFAF"/>
<path d="M186.354 201.514H189.09C189.541 201.5 189.99 201.575 190.412 201.735C190.746 201.875 191.043 202.091 191.279 202.366C191.518 202.645 191.701 202.967 191.818 203.316C191.942 203.69 192.018 204.078 192.046 204.471C192.105 204.968 192.066 205.471 191.932 205.953C191.828 206.287 191.642 206.589 191.393 206.834C191.185 207.055 190.923 207.217 190.633 207.306C190.279 207.408 189.914 207.464 189.546 207.473H186.818L186.354 201.514ZM188.292 202.867L188.528 206.12H188.976C189.253 206.138 189.531 206.094 189.789 205.991C189.959 205.892 190.085 205.732 190.139 205.542C190.226 205.205 190.246 204.854 190.2 204.509C190.214 204.045 190.072 203.59 189.797 203.217C189.656 203.089 189.49 202.992 189.309 202.932C189.129 202.872 188.937 202.85 188.748 202.867H188.292Z" fill="#AFAFAF"/>
<path d="M196.462 206.485H194.372L194.152 207.473H192.274L194.083 201.515H196.12L198.788 207.473H196.857L196.462 206.485ZM195.983 205.201L195.178 203.057L194.676 205.201H195.983Z" fill="#AFAFAF"/>
<path d="M197.921 201.515H203.515L203.621 202.989H201.744L202.063 207.473H200.224L199.905 202.989H198.028L197.921 201.515Z" fill="#AFAFAF"/>
<path d="M207.801 206.485H205.711L205.491 207.473H203.614L205.422 201.515H207.429L210.089 207.473H208.166L207.801 206.485ZM207.322 205.201L206.509 203.057L206 205.201H207.322Z" fill="#AFAFAF"/>
<path d="M284.804 131.541C285.481 131.199 286.324 130.781 287.039 130.348C287.753 129.915 288.559 129.497 289.319 129.041C290.801 128.121 292.306 127.217 293.727 126.214C296.581 124.261 299.257 122.058 301.722 119.632C302.034 119.343 302.307 119.024 302.604 118.712L303.037 118.249L303.25 118.021L303.356 117.899C303.25 118.104 303.356 118.044 303.356 117.846C303.423 117.575 303.461 117.297 303.47 117.018C303.452 115.402 303.267 113.792 302.915 112.214C302.239 108.81 301.213 105.298 300.202 101.863L303.151 100.571C305.012 103.867 306.566 107.327 307.794 110.907C308.484 112.842 308.924 114.857 309.102 116.904C309.148 117.54 309.128 118.179 309.041 118.811C308.928 119.705 308.611 120.561 308.114 121.312L307.984 121.486L307.886 121.608L307.772 121.752L307.536 122.041L307.065 122.611C306.753 122.984 306.449 123.371 306.115 123.728C303.516 126.613 300.616 129.211 297.466 131.48C295.946 132.605 294.335 133.684 292.686 134.665C291.872 135.159 291.044 135.63 290.2 136.094C289.357 136.557 288.536 136.983 287.563 137.439L284.804 131.541Z" fill="#EAEAEA"/>
<path d="M278.04 310.217C278.609 310.203 279.175 310.127 279.728 309.989C279.756 309.981 279.781 309.965 279.801 309.944C279.821 309.922 279.835 309.896 279.842 309.868C279.845 309.839 279.841 309.809 279.829 309.782C279.817 309.755 279.797 309.732 279.773 309.716C279.553 309.571 277.622 308.325 276.878 308.659C276.795 308.698 276.724 308.757 276.672 308.832C276.62 308.907 276.589 308.994 276.581 309.085C276.552 309.228 276.559 309.377 276.603 309.516C276.647 309.656 276.726 309.782 276.832 309.883C277.181 310.137 277.61 310.256 278.04 310.217ZM279.294 309.776C278.192 309.997 277.356 309.959 277.014 309.662C276.946 309.592 276.896 309.506 276.87 309.412C276.843 309.318 276.841 309.218 276.862 309.123C276.865 309.083 276.879 309.044 276.901 309.01C276.924 308.977 276.955 308.95 276.992 308.933C277.394 308.758 278.512 309.32 279.294 309.776Z" fill="#B8B4B1"/>
<path d="M279.72 309.99H279.796C279.818 309.976 279.837 309.957 279.85 309.935C279.863 309.912 279.871 309.887 279.872 309.86C279.872 309.777 279.872 307.945 279.173 307.337C279.089 307.257 278.988 307.196 278.877 307.16C278.767 307.125 278.649 307.115 278.534 307.132C278.415 307.133 278.299 307.175 278.206 307.251C278.113 307.327 278.05 307.433 278.025 307.55C277.881 308.31 279.036 309.64 279.644 309.99C279.669 309.997 279.695 309.997 279.72 309.99ZM278.633 307.413C278.757 307.414 278.876 307.46 278.968 307.543C279.369 308.134 279.576 308.835 279.56 309.549C278.952 309.062 278.23 308.029 278.322 307.596C278.322 307.527 278.375 307.436 278.565 307.413H278.633Z" fill="#B8B4B1"/>
<path d="M279.127 112.533C278.367 116.333 276.847 123.933 279.469 126.479C279.469 126.479 278.436 130.279 271.421 130.279C263.699 130.279 267.735 126.479 267.735 126.479C271.945 125.476 271.831 122.352 271.102 119.411L279.127 112.533Z" fill="#EAEAEA"/>
<path d="M266.253 128C265.044 128.167 266.078 125.028 266.564 124.701C267.704 123.941 282.418 122.885 282.319 124.701C282.258 125.461 281.894 126.981 281.255 127.483C280.617 127.984 276.832 126.419 266.253 128Z" fill="#B8B4B1"/>
<path d="M268.654 126.92C267.689 127.247 267.78 124.085 268.107 123.705C268.867 122.824 280.776 119.768 281.126 121.494C281.263 122.254 281.331 123.774 280.921 124.313C280.51 124.853 277.014 123.964 268.654 126.92Z" fill="#B8B4B1"/>
<path d="M264.224 105.724C264.176 105.726 264.128 105.716 264.085 105.697C264.041 105.677 264.003 105.647 263.973 105.61C263.741 105.311 263.442 105.07 263.1 104.908C262.758 104.745 262.383 104.666 262.004 104.675C261.965 104.68 261.925 104.677 261.886 104.667C261.848 104.656 261.812 104.638 261.781 104.613C261.749 104.588 261.723 104.557 261.704 104.522C261.685 104.487 261.674 104.449 261.67 104.409C261.664 104.331 261.688 104.253 261.737 104.192C261.787 104.131 261.858 104.092 261.936 104.082C262.414 104.058 262.892 104.149 263.327 104.349C263.762 104.549 264.143 104.851 264.436 105.23C264.487 105.291 264.512 105.371 264.505 105.45C264.498 105.53 264.459 105.604 264.398 105.655C264.347 105.692 264.287 105.716 264.224 105.724Z" fill="#263238"/>
<path d="M262.749 109.44C262.404 110.653 261.893 111.812 261.229 112.883C261.508 113.043 261.818 113.141 262.139 113.168C262.459 113.196 262.782 113.153 263.084 113.043L262.749 109.44Z" fill="#EAEAEA"/>
<path d="M263.122 108.52C263.175 109.03 262.939 109.47 262.605 109.501C262.27 109.531 261.959 109.151 261.913 108.634C261.868 108.118 262.096 107.684 262.422 107.654C262.749 107.624 263.068 108.004 263.122 108.52Z" fill="#263238"/>
<path d="M262.574 107.669L261.313 107.434C261.313 107.434 262.035 108.33 262.574 107.669Z" fill="#263238"/>
<path d="M287.092 309.845H280.723L281.225 295.101H287.594L287.092 309.845Z" fill="#EAEAEA"/>
<path d="M280.222 309.108H287.373C287.496 309.105 287.617 309.147 287.71 309.227C287.804 309.307 287.866 309.419 287.882 309.541L288.696 315.195C288.712 315.338 288.697 315.483 288.653 315.62C288.609 315.757 288.537 315.883 288.441 315.99C288.345 316.097 288.227 316.183 288.095 316.241C287.964 316.299 287.821 316.328 287.677 316.328C285.184 316.29 283.984 316.138 280.837 316.138C278.899 316.138 276.072 316.343 273.404 316.343C270.737 316.343 270.585 313.698 271.702 313.462C276.688 312.383 277.478 310.909 279.158 309.495C279.457 309.247 279.833 309.11 280.222 309.108Z" fill="#263238"/>
<g opacity="0.2">
<path d="M287.594 295.101H281.225L280.966 302.701H287.335L287.594 295.101Z" fill="black"/>
</g>
<path d="M261.761 135.28C257.864 133.765 254.047 132.053 250.323 130.15C246.477 128.271 242.814 126.04 239.379 123.485C238.462 122.766 237.593 121.987 236.78 121.152C236.567 120.924 236.354 120.711 236.149 120.445C235.908 120.173 235.685 119.886 235.48 119.586C234.92 118.77 234.57 117.827 234.462 116.843C234.378 115.909 234.505 114.969 234.834 114.091C235.098 113.386 235.459 112.721 235.906 112.115C236.64 111.111 237.507 110.212 238.482 109.44C240.204 108.069 242.064 106.88 244.03 105.891C244.973 105.389 245.93 104.941 246.903 104.523C247.876 104.105 248.834 103.71 249.875 103.353L251.22 106.279C247.906 108.369 244.471 110.671 241.948 113.24C241.383 113.812 240.886 114.447 240.466 115.133C240.101 115.733 240.109 116.181 240.17 116.143C240.23 116.105 240.17 116.143 240.276 116.219L240.58 116.546C240.694 116.683 240.854 116.82 240.998 116.964C241.642 117.557 242.325 118.105 243.042 118.606C244.611 119.717 246.246 120.732 247.937 121.646C249.647 122.603 251.41 123.508 253.204 124.374C256.791 126.092 260.5 127.741 264.14 129.246L261.761 135.28Z" fill="#EAEAEA"/>
<path d="M253.12 104.234L254.169 101.954L249.366 100.32C249.366 100.32 247.846 104.812 249.647 106.879C250.4 106.761 251.111 106.457 251.717 105.995C252.324 105.534 252.806 104.928 253.12 104.234Z" fill="#EAEAEA"/>
<path d="M254.146 97.0217L250.323 95.9121L249.366 100.29L254.146 101.954V97.0217Z" fill="#EAEAEA"/>
<path d="M303.546 102.174L304.101 96.8545L299.176 98.0401C299.176 98.0401 299.1 103.041 301.707 103.831L303.546 102.174Z" fill="#EAEAEA"/>
<path d="M301.73 93.1084L298.515 94.6056L299.176 98.0028L304.101 96.84L301.73 93.1084Z" fill="#EAEAEA"/>
<path d="M280.13 105.071C280.366 111.386 280.594 114.054 277.744 117.588C273.45 122.908 265.645 121.806 263.532 115.688C261.632 110.186 261.571 100.784 267.469 97.6836C268.765 96.9942 270.217 96.6475 271.685 96.6765C273.153 96.7055 274.59 97.1091 275.858 97.8491C277.126 98.5892 278.185 99.641 278.932 100.905C279.68 102.169 280.093 103.603 280.13 105.071Z" fill="#EAEAEA"/>
<path d="M277.379 117.58C283.581 114.897 287.654 109.22 285.937 100.419C284.288 91.9757 278.588 91.1397 276.232 92.8877C273.876 94.6357 268.001 92.0289 264.474 94.9929C258.394 100.138 264.14 105.633 267.15 108.954C268.943 112.648 271.299 120.202 277.379 117.58Z" fill="#263238"/>
<path d="M274.803 98.9073C275.559 99.8778 276.584 100.605 277.749 101.001C278.914 101.396 280.17 101.441 281.36 101.131C282.551 100.82 283.625 100.168 284.449 99.2546C285.274 98.3411 285.813 97.2061 285.999 95.9899C286.186 94.7736 286.012 93.5293 285.5 92.4105C284.988 91.2917 284.159 90.3475 283.116 89.6943C282.073 89.0411 280.862 88.7076 279.632 88.735C278.402 88.7623 277.206 89.1493 276.194 89.8481C274.808 90.8653 273.884 92.391 273.623 94.0898C273.362 95.7886 273.786 97.5214 274.803 98.9073Z" fill="#B8B4B1"/>
<path d="M276.414 93.4804C275.525 88.3884 280.336 84.4668 286.78 86.3592C293.225 88.2516 289.82 93.9592 288.49 98.5192C287.16 103.079 290.641 107.426 292.085 103.953C293.529 100.48 291.097 99.3932 291.097 99.3932C291.097 99.3932 297.937 101.164 291.584 108.878C285.23 116.592 279.477 108.072 281.035 103.049C282.296 99.0132 277.258 98.2912 276.414 93.4804Z" fill="#263238"/>
<path d="M269.977 95.403C267.036 93.883 262.058 92.629 259.223 97.4018C257.885 99.6818 258.402 102.722 258.402 102.722L267.058 103.292L269.977 95.403Z" fill="#263238"/>
<path d="M257.384 101.217C257.333 101.214 257.285 101.19 257.251 101.152C257.217 101.113 257.199 101.063 257.201 101.012C257.201 100.883 257.422 97.8278 259.268 95.9126C263.73 91.2766 268.958 95.1526 270.448 96.4066C270.48 96.4405 270.499 96.485 270.5 96.5317C270.501 96.5783 270.485 96.6238 270.455 96.6595C270.425 96.6952 270.383 96.7186 270.337 96.7252C270.291 96.7319 270.244 96.7212 270.205 96.6954C268.768 95.4642 263.768 91.7782 259.565 96.171C257.817 97.9874 257.604 101.005 257.604 101.035C257.603 101.062 257.597 101.089 257.585 101.113C257.573 101.137 257.556 101.159 257.535 101.176C257.514 101.194 257.49 101.206 257.464 101.213C257.438 101.22 257.41 101.222 257.384 101.217Z" fill="#263238"/>
<path d="M268.206 108.68C268.172 109.876 267.729 111.024 266.952 111.933C265.903 113.164 264.672 112.556 264.421 111.173C264.17 109.949 264.421 107.829 265.744 107.092C267.066 106.354 268.221 107.297 268.206 108.68Z" fill="#EAEAEA"/>
<path d="M266.838 166.531C266.838 166.531 267.248 210.725 271.079 235.349C274.18 255.238 279.902 301.234 279.902 301.234H288.589C288.589 301.234 289.433 256.827 287.829 237.158C283.854 187.378 294.122 178.068 285.838 166.531H266.838Z" fill="#263238"/>
<path opacity="0.1" d="M266.838 166.531C266.838 166.531 267.248 210.725 271.079 235.349C274.18 255.238 279.902 301.234 279.902 301.234H288.589C288.589 301.234 289.433 256.827 287.829 237.158C283.854 187.378 294.122 178.068 285.838 166.531H266.838Z" fill="white"/>
<path opacity="0.3" d="M271.406 186.58C274.446 199.918 272.021 220.924 270.357 230.174C268.594 216.129 267.704 197.927 267.264 184.574C268.837 182.035 270.326 181.868 271.406 186.58Z" fill="black"/>
<path d="M278.717 301.401H289.775L290.352 297.525L278.656 297.13L278.717 301.401Z" fill="#B8B4B1"/>
<path d="M281.871 129.2C282.912 127.133 288.506 125.833 291.561 125.841L293.841 135.994C293.841 135.994 287.761 145.031 285.222 144.073C282.236 142.971 279.644 133.661 281.871 129.2Z" fill="#B8B4B1"/>
<path opacity="0.4" d="M281.871 129.2C282.912 127.133 288.506 125.833 291.561 125.841L293.841 135.994C293.841 135.994 287.761 145.031 285.222 144.073C282.236 142.971 279.644 133.661 281.871 129.2Z" fill="#B8B4B1"/>
<path d="M275.426 298.916C275.439 298.894 275.445 298.869 275.445 298.844C275.445 298.819 275.439 298.794 275.426 298.772C275.412 298.743 275.389 298.719 275.36 298.704C275.331 298.689 275.298 298.683 275.266 298.688C274.947 298.741 272.135 299.182 271.755 299.988C271.715 300.061 271.693 300.144 271.693 300.227C271.693 300.311 271.715 300.393 271.755 300.467C271.82 300.587 271.914 300.689 272.028 300.765C272.142 300.84 272.273 300.887 272.409 300.9C273.328 300.991 274.689 299.714 275.373 298.939L275.426 298.916ZM272.052 300.087C272.31 299.661 273.769 299.266 274.879 299.061C273.876 300.079 272.994 300.649 272.477 300.581C272.388 300.572 272.302 300.541 272.228 300.49C272.153 300.44 272.093 300.372 272.052 300.292C272.035 300.263 272.026 300.23 272.026 300.197C272.026 300.164 272.035 300.131 272.052 300.102C272.052 300.102 272.044 300.094 272.052 300.087Z" fill="#B8B4B1"/>
<path d="M275.426 298.916C275.439 298.894 275.445 298.869 275.445 298.844C275.445 298.819 275.439 298.794 275.426 298.772C275.38 298.719 274.256 297.419 273.214 297.351C273.064 297.338 272.913 297.356 272.771 297.405C272.628 297.453 272.497 297.53 272.386 297.632C272.074 297.913 272.105 298.156 272.181 298.308C272.508 298.962 274.529 299.19 275.342 299.015C275.363 299.007 275.382 298.993 275.397 298.976C275.411 298.959 275.421 298.938 275.426 298.916ZM272.454 297.959C272.488 297.907 272.529 297.861 272.576 297.822C272.655 297.746 272.75 297.689 272.854 297.653C272.957 297.618 273.067 297.605 273.176 297.617C273.883 297.791 274.518 298.181 274.993 298.734C274.088 298.81 272.629 298.536 272.432 298.141C272.419 298.111 272.414 298.079 272.418 298.047C272.422 298.015 272.435 297.984 272.454 297.959Z" fill="#B8B4B1"/>
<path d="M282.061 296.218L276.239 298.81L273.648 293.406L270.258 286.338L269.855 285.517L275.677 282.926L276.125 283.853L279.408 290.701L282.061 296.218Z" fill="#EAEAEA"/>
<path opacity="0.2" d="M279.408 290.7L273.648 293.406L270.258 286.338L276.125 283.853L279.408 290.7Z" fill="black"/>
<path d="M260.013 166.531C260.013 166.531 241.416 212.8 246.455 234.536C251.015 254.213 271.155 291.475 271.155 291.475L278.96 287.569C278.96 287.569 266.504 242.584 265.158 232.811C262.529 213.811 279.424 186.96 279.424 166.531H260.013Z" fill="#263238"/>
<path opacity="0.1" d="M260.013 166.531C260.013 166.531 241.416 212.8 246.455 234.536C251.015 254.213 271.155 291.475 271.155 291.475L278.96 287.569C278.96 287.569 266.504 242.584 265.158 232.811C262.529 213.811 279.424 186.96 279.424 166.531H260.013Z" fill="white"/>
<path d="M275.206 297.997L280.982 293.794C281.079 293.718 281.201 293.68 281.325 293.689C281.448 293.697 281.564 293.751 281.65 293.84L285.64 297.936C285.737 298.043 285.81 298.169 285.855 298.306C285.9 298.443 285.915 298.588 285.9 298.732C285.885 298.875 285.84 299.014 285.768 299.139C285.695 299.263 285.598 299.372 285.481 299.456C283.436 300.885 282.38 301.478 279.842 303.324C278.276 304.464 275.16 306.98 273.002 308.553C270.843 310.126 269.202 308.074 269.962 307.231C273.366 303.431 274.081 301.075 274.613 298.939C274.695 298.566 274.905 298.233 275.206 297.997Z" fill="#263238"/>
<path d="M270.653 293.125L280.708 288.527L279.424 284.431L268.654 289.34L270.653 293.125Z" fill="#B8B4B1"/>
<path d="M264.946 128.715C264.117 126.556 256.852 124.155 253.204 123.395L251.6 135.342C251.6 135.342 257.558 143.899 260.165 143.193C263.251 142.357 266.739 133.343 264.946 128.715Z" fill="#B8B4B1"/>
<path opacity="0.4" d="M264.946 128.715C264.117 126.556 256.852 124.155 253.204 123.395L251.6 135.342C251.6 135.342 257.558 143.899 260.165 143.193C263.251 142.357 266.739 133.343 264.946 128.715Z" fill="#B8B4B1"/>
<path d="M256.973 128.114C256.973 128.114 253.933 129.178 260.013 166.532H285.853C285.42 156.013 285.405 149.523 290.413 127.924C286.792 127.177 283.122 126.694 279.431 126.48C275.525 126.198 271.603 126.198 267.697 126.48C262.688 126.92 256.973 128.114 256.973 128.114Z" fill="#B8B4B1"/>
<path opacity="0.4" d="M256.973 128.114C256.973 128.114 253.933 129.178 260.013 166.532H285.853C285.42 156.013 285.405 149.523 290.413 127.924C286.792 127.177 283.122 126.694 279.431 126.48C275.525 126.198 271.603 126.198 267.697 126.48C262.688 126.92 256.973 128.114 256.973 128.114Z" fill="#B8B4B1"/>
<path d="M286.256 165.02L287.419 167.3C287.51 167.482 287.297 167.664 287.001 167.664H259.884C259.648 167.664 259.458 167.55 259.443 167.398L259.208 165.118C259.208 164.959 259.398 164.822 259.648 164.822H285.8C285.887 164.808 285.976 164.82 286.057 164.855C286.137 164.89 286.207 164.947 286.256 165.02Z" fill="#B8B4B1"/>
<path opacity="0.3" d="M286.256 165.02L287.419 167.3C287.51 167.482 287.297 167.664 287.001 167.664H259.884C259.648 167.664 259.458 167.55 259.443 167.398L259.208 165.118C259.208 164.959 259.398 164.822 259.648 164.822H285.8C285.887 164.808 285.976 164.82 286.057 164.855C286.137 164.89 286.207 164.947 286.256 165.02Z" fill="white"/>
<path d="M282.76 167.961H283.459C283.604 167.961 283.71 167.885 283.695 167.801L283.368 164.761C283.368 164.67 283.239 164.602 283.102 164.602H282.395C282.258 164.602 282.152 164.67 282.16 164.761L282.486 167.801C282.479 167.87 282.6 167.961 282.76 167.961Z" fill="#263238"/>
<path d="M265.744 167.961H266.443C266.58 167.961 266.686 167.885 266.678 167.801L266.352 164.761C266.352 164.67 266.222 164.602 266.078 164.602H265.379C265.234 164.602 265.136 164.67 265.143 164.761L265.47 167.801C265.478 167.87 265.599 167.961 265.744 167.961Z" fill="#263238"/>
<path d="M34.0886 403V386.2H36.2726L44.6606 399.352V386.2H46.6766V403H44.5046L36.1046 389.848V403H34.0886ZM54.5574 403.312C53.4534 403.312 52.4454 403.028 51.5334 402.46C50.6294 401.892 49.9054 401.132 49.3614 400.18C48.8254 399.22 48.5574 398.16 48.5574 397C48.5574 396.12 48.7134 395.3 49.0254 394.54C49.3374 393.772 49.7654 393.1 50.3094 392.524C50.8614 391.94 51.5014 391.484 52.2294 391.156C52.9574 390.828 53.7334 390.664 54.5574 390.664C55.6614 390.664 56.6654 390.948 57.5694 391.516C58.4814 392.084 59.2054 392.848 59.7414 393.808C60.2854 394.768 60.5574 395.832 60.5574 397C60.5574 397.872 60.4014 398.688 60.0894 399.448C59.7774 400.208 59.3454 400.88 58.7934 401.464C58.2494 402.04 57.6134 402.492 56.8854 402.82C56.1654 403.148 55.3894 403.312 54.5574 403.312ZM54.5574 401.296C55.3094 401.296 55.9854 401.1 56.5854 400.708C57.1934 400.308 57.6694 399.784 58.0134 399.136C58.3654 398.48 58.5414 397.768 58.5414 397C58.5414 396.216 58.3614 395.496 58.0014 394.84C57.6494 394.184 57.1734 393.66 56.5734 393.268C55.9734 392.876 55.3014 392.68 54.5574 392.68C53.8054 392.68 53.1294 392.88 52.5294 393.28C51.9294 393.672 51.4534 394.196 51.1014 394.852C50.7494 395.508 50.5734 396.224 50.5734 397C50.5734 397.8 50.7534 398.528 51.1134 399.184C51.4734 399.832 51.9574 400.348 52.5654 400.732C53.1734 401.108 53.8374 401.296 54.5574 401.296ZM77.8071 385H79.8231V403H77.8071V400.96C77.3991 401.664 76.8511 402.232 76.1631 402.664C75.4751 403.096 74.6671 403.312 73.7391 403.312C72.8671 403.312 72.0511 403.148 71.2911 402.82C70.5311 402.492 69.8591 402.04 69.2751 401.464C68.6991 400.88 68.2471 400.208 67.9191 399.448C67.5911 398.688 67.4271 397.872 67.4271 397C67.4271 396.128 67.5911 395.312 67.9191 394.552C68.2471 393.784 68.6991 393.112 69.2751 392.536C69.8591 391.952 70.5311 391.496 71.2911 391.168C72.0511 390.84 72.8671 390.676 73.7391 390.676C74.6671 390.676 75.4751 390.892 76.1631 391.324C76.8511 391.756 77.3991 392.324 77.8071 393.028V385ZM73.7631 401.356C74.5551 401.356 75.2391 401.164 75.8151 400.78C76.3991 400.388 76.8471 399.86 77.1591 399.196C77.4791 398.532 77.6391 397.8 77.6391 397C77.6391 396.184 77.4791 395.448 77.1591 394.792C76.8391 394.128 76.3871 393.604 75.8031 393.22C75.2271 392.828 74.5471 392.632 73.7631 392.632C72.9711 392.632 72.2511 392.828 71.6031 393.22C70.9631 393.612 70.4511 394.14 70.0671 394.804C69.6831 395.46 69.4911 396.192 69.4911 397C69.4911 397.808 69.6871 398.544 70.0791 399.208C70.4711 399.864 70.9911 400.388 71.6391 400.78C72.2871 401.164 72.9951 401.356 73.7631 401.356ZM92.0699 391H94.0859V403H92.0699L91.9859 400.972C91.6099 401.668 91.0899 402.232 90.4259 402.664C89.7699 403.096 88.9859 403.312 88.0739 403.312C87.1939 403.312 86.3699 403.148 85.6019 402.82C84.8339 402.484 84.1539 402.024 83.5619 401.44C82.9779 400.848 82.5219 400.168 82.1939 399.4C81.8659 398.632 81.7019 397.804 81.7019 396.916C81.7019 396.06 81.8619 395.252 82.1819 394.492C82.5019 393.732 82.9459 393.068 83.5139 392.5C84.0899 391.924 84.7539 391.476 85.5059 391.156C86.2579 390.828 87.0659 390.664 87.9299 390.664C88.8739 390.664 89.7019 390.888 90.4139 391.336C91.1259 391.776 91.7019 392.348 92.1419 393.052L92.0699 391ZM88.0379 401.356C88.8299 401.356 89.5139 401.164 90.0899 400.78C90.6739 400.388 91.1219 399.86 91.4339 399.196C91.7539 398.532 91.9139 397.8 91.9139 397C91.9139 396.184 91.7539 395.448 91.4339 394.792C91.1139 394.128 90.6619 393.604 90.0779 393.22C89.5019 392.828 88.8219 392.632 88.0379 392.632C87.2459 392.632 86.5259 392.828 85.8779 393.22C85.2299 393.612 84.7139 394.14 84.3299 394.804C83.9539 395.46 83.7659 396.192 83.7659 397C83.7659 397.808 83.9619 398.544 84.3539 399.208C84.7459 399.864 85.2659 400.388 85.9139 400.78C86.5619 401.164 87.2699 401.356 88.0379 401.356ZM102.538 393.016H99.8136L99.8016 403H97.7856L97.7976 393.016H95.7336V391H97.7976L97.7856 387.232H99.8016L99.8136 391H102.538V393.016ZM113.869 391H115.885V403H113.869L113.785 400.972C113.409 401.668 112.889 402.232 112.225 402.664C111.569 403.096 110.785 403.312 109.873 403.312C108.993 403.312 108.169 403.148 107.401 402.82C106.633 402.484 105.953 402.024 105.361 401.44C104.777 400.848 104.321 400.168 103.993 399.4C103.665 398.632 103.501 397.804 103.501 396.916C103.501 396.06 103.661 395.252 103.981 394.492C104.301 393.732 104.745 393.068 105.313 392.5C105.889 391.924 106.553 391.476 107.305 391.156C108.057 390.828 108.865 390.664 109.729 390.664C110.673 390.664 111.501 390.888 112.213 391.336C112.925 391.776 113.501 392.348 113.941 393.052L113.869 391ZM109.837 401.356C110.629 401.356 111.313 401.164 111.889 400.78C112.473 400.388 112.921 399.86 113.233 399.196C113.553 398.532 113.713 397.8 113.713 397C113.713 396.184 113.553 395.448 113.233 394.792C112.913 394.128 112.461 393.604 111.877 393.22C111.301 392.828 110.621 392.632 109.837 392.632C109.045 392.632 108.325 392.828 107.677 393.22C107.029 393.612 106.513 394.14 106.129 394.804C105.753 395.46 105.565 396.192 105.565 397C105.565 397.808 105.761 398.544 106.153 399.208C106.545 399.864 107.065 400.388 107.713 400.78C108.361 401.164 109.069 401.356 109.837 401.356ZM133.372 391H135.388V403H133.372L133.288 400.972C132.912 401.668 132.392 402.232 131.728 402.664C131.072 403.096 130.288 403.312 129.376 403.312C128.496 403.312 127.672 403.148 126.904 402.82C126.136 402.484 125.456 402.024 124.864 401.44C124.28 400.848 123.824 400.168 123.496 399.4C123.168 398.632 123.004 397.804 123.004 396.916C123.004 396.06 123.164 395.252 123.484 394.492C123.804 393.732 124.248 393.068 124.816 392.5C125.392 391.924 126.056 391.476 126.808 391.156C127.56 390.828 128.368 390.664 129.232 390.664C130.176 390.664 131.004 390.888 131.716 391.336C132.428 391.776 133.004 392.348 133.444 393.052L133.372 391ZM129.34 401.356C130.132 401.356 130.816 401.164 131.392 400.78C131.976 400.388 132.424 399.86 132.736 399.196C133.056 398.532 133.216 397.8 133.216 397C133.216 396.184 133.056 395.448 132.736 394.792C132.416 394.128 131.964 393.604 131.38 393.22C130.804 392.828 130.124 392.632 129.34 392.632C128.548 392.632 127.828 392.828 127.18 393.22C126.532 393.612 126.016 394.14 125.632 394.804C125.256 395.46 125.068 396.192 125.068 397C125.068 397.808 125.264 398.544 125.656 399.208C126.048 399.864 126.568 400.388 127.216 400.78C127.864 401.164 128.572 401.356 129.34 401.356ZM143.536 403H140.956L136.576 390.976H138.724L142.24 400.66L145.756 390.976H147.904L143.536 403ZM158.874 391H160.89V403H158.874L158.79 400.972C158.414 401.668 157.894 402.232 157.23 402.664C156.574 403.096 155.79 403.312 154.878 403.312C153.998 403.312 153.174 403.148 152.406 402.82C151.638 402.484 150.958 402.024 150.366 401.44C149.782 400.848 149.326 400.168 148.998 399.4C148.67 398.632 148.506 397.804 148.506 396.916C148.506 396.06 148.666 395.252 148.986 394.492C149.306 393.732 149.75 393.068 150.318 392.5C150.894 391.924 151.558 391.476 152.31 391.156C153.062 390.828 153.87 390.664 154.734 390.664C155.678 390.664 156.506 390.888 157.218 391.336C157.93 391.776 158.506 392.348 158.946 393.052L158.874 391ZM154.842 401.356C155.634 401.356 156.318 401.164 156.894 400.78C157.478 400.388 157.926 399.86 158.238 399.196C158.558 398.532 158.718 397.8 158.718 397C158.718 396.184 158.558 395.448 158.238 394.792C157.918 394.128 157.466 393.604 156.882 393.22C156.306 392.828 155.626 392.632 154.842 392.632C154.05 392.632 153.33 392.828 152.682 393.22C152.034 393.612 151.518 394.14 151.134 394.804C150.758 395.46 150.57 396.192 150.57 397C150.57 397.808 150.766 398.544 151.158 399.208C151.55 399.864 152.07 400.388 152.718 400.78C153.366 401.164 154.074 401.356 154.842 401.356ZM163.126 391H165.142V403H163.126V391ZM164.158 389.044C163.838 389.044 163.57 388.94 163.354 388.732C163.138 388.524 163.03 388.264 163.03 387.952C163.03 387.64 163.138 387.38 163.354 387.172C163.57 386.964 163.834 386.86 164.146 386.86C164.458 386.86 164.722 386.964 164.938 387.172C165.154 387.38 165.262 387.64 165.262 387.952C165.262 388.264 165.154 388.524 164.938 388.732C164.73 388.94 164.47 389.044 164.158 389.044ZM167.932 403V385H169.948V403H167.932ZM182.199 391H184.215V403H182.199L182.115 400.972C181.739 401.668 181.219 402.232 180.555 402.664C179.899 403.096 179.115 403.312 178.203 403.312C177.323 403.312 176.499 403.148 175.731 402.82C174.963 402.484 174.283 402.024 173.691 401.44C173.107 400.848 172.651 400.168 172.323 399.4C171.995 398.632 171.831 397.804 171.831 396.916C171.831 396.06 171.991 395.252 172.311 394.492C172.631 393.732 173.075 393.068 173.643 392.5C174.219 391.924 174.883 391.476 175.635 391.156C176.387 390.828 177.195 390.664 178.059 390.664C179.003 390.664 179.831 390.888 180.543 391.336C181.255 391.776 181.831 392.348 182.271 393.052L182.199 391ZM178.167 401.356C178.959 401.356 179.643 401.164 180.219 400.78C180.803 400.388 181.251 399.86 181.563 399.196C181.883 398.532 182.043 397.8 182.043 397C182.043 396.184 181.883 395.448 181.563 394.792C181.243 394.128 180.791 393.604 180.207 393.22C179.631 392.828 178.951 392.632 178.167 392.632C177.375 392.632 176.655 392.828 176.007 393.22C175.359 393.612 174.843 394.14 174.459 394.804C174.083 395.46 173.895 396.192 173.895 397C173.895 397.808 174.091 398.544 174.483 399.208C174.875 399.864 175.395 400.388 176.043 400.78C176.691 401.164 177.399 401.356 178.167 401.356ZM192.663 390.664C193.831 390.664 194.891 390.948 195.843 391.516C196.803 392.084 197.567 392.848 198.135 393.808C198.703 394.76 198.987 395.82 198.987 396.988C198.987 397.86 198.823 398.68 198.495 399.448C198.167 400.208 197.711 400.88 197.127 401.464C196.551 402.04 195.879 402.492 195.111 402.82C194.351 403.148 193.535 403.312 192.663 403.312C191.735 403.312 190.927 403.096 190.239 402.664C189.559 402.224 189.015 401.652 188.607 400.948V403H186.591V385H188.607V393.028C189.015 392.324 189.559 391.756 190.239 391.324C190.927 390.884 191.735 390.664 192.663 390.664ZM192.639 401.344C193.431 401.344 194.151 401.148 194.799 400.756C195.447 400.364 195.963 399.84 196.347 399.184C196.731 398.52 196.923 397.788 196.923 396.988C196.923 396.172 196.727 395.436 196.335 394.78C195.943 394.116 195.423 393.592 194.775 393.208C194.127 392.816 193.415 392.62 192.639 392.62C191.855 392.62 191.171 392.816 190.587 393.208C190.011 393.6 189.563 394.128 189.243 394.792C188.931 395.456 188.775 396.188 188.775 396.988C188.775 397.796 188.931 398.532 189.243 399.196C189.563 399.852 190.015 400.376 190.599 400.768C191.183 401.152 191.863 401.344 192.639 401.344ZM200.702 403V385H202.718V403H200.702ZM210.6 403.312C209.496 403.312 208.488 403.028 207.576 402.46C206.672 401.892 205.948 401.132 205.404 400.18C204.868 399.22 204.6 398.16 204.6 397C204.6 396.12 204.756 395.3 205.068 394.54C205.38 393.772 205.808 393.1 206.352 392.524C206.904 391.94 207.544 391.484 208.272 391.156C209 390.828 209.776 390.664 210.6 390.664C211.504 390.664 212.332 390.848 213.084 391.216C213.844 391.576 214.492 392.08 215.028 392.728C215.572 393.376 215.976 394.128 216.24 394.984C216.512 395.84 216.612 396.756 216.54 397.732H206.748C206.844 398.412 207.068 399.02 207.42 399.556C207.772 400.084 208.22 400.504 208.764 400.816C209.316 401.128 209.928 401.288 210.6 401.296C211.32 401.296 211.972 401.112 212.556 400.744C213.14 400.368 213.612 399.856 213.972 399.208L216.024 399.688C215.544 400.752 214.82 401.624 213.852 402.304C212.884 402.976 211.8 403.312 210.6 403.312ZM206.688 396.148H214.512C214.448 395.476 214.232 394.864 213.864 394.312C213.496 393.752 213.028 393.304 212.46 392.968C211.892 392.632 211.272 392.464 210.6 392.464C209.928 392.464 209.312 392.628 208.752 392.956C208.192 393.284 207.728 393.728 207.36 394.288C207 394.84 206.776 395.46 206.688 396.148ZM233.815 391H235.831V403H233.815L233.731 400.972C233.355 401.668 232.835 402.232 232.171 402.664C231.515 403.096 230.731 403.312 229.819 403.312C228.939 403.312 228.115 403.148 227.347 402.82C226.579 402.484 225.899 402.024 225.307 401.44C224.723 400.848 224.267 400.168 223.939 399.4C223.611 398.632 223.447 397.804 223.447 396.916C223.447 396.06 223.607 395.252 223.927 394.492C224.247 393.732 224.691 393.068 225.259 392.5C225.835 391.924 226.499 391.476 227.251 391.156C228.003 390.828 228.811 390.664 229.675 390.664C230.619 390.664 231.447 390.888 232.159 391.336C232.871 391.776 233.447 392.348 233.887 393.052L233.815 391ZM229.783 401.356C230.575 401.356 231.259 401.164 231.835 400.78C232.419 400.388 232.867 399.86 233.179 399.196C233.499 398.532 233.659 397.8 233.659 397C233.659 396.184 233.499 395.448 233.179 394.792C232.859 394.128 232.407 393.604 231.823 393.22C231.247 392.828 230.567 392.632 229.783 392.632C228.991 392.632 228.271 392.828 227.623 393.22C226.975 393.612 226.459 394.14 226.075 394.804C225.699 395.46 225.511 396.192 225.511 397C225.511 397.808 225.707 398.544 226.099 399.208C226.491 399.864 227.011 400.388 227.659 400.78C228.307 401.164 229.015 401.356 229.783 401.356ZM244.282 393.016H241.558L241.546 403H239.53L239.542 393.016H237.478V391H239.542L239.53 387.232H241.546L241.558 391H244.282V393.016ZM258.09 393.016H255.366L255.354 403H253.338L253.35 393.016H251.286V391H253.35L253.338 387.232H255.354L255.366 391H258.09V393.016ZM270.686 395.536V403H268.67V395.98C268.67 395.372 268.522 394.82 268.226 394.324C267.93 393.828 267.534 393.436 267.038 393.148C266.542 392.852 265.99 392.704 265.382 392.704C264.782 392.704 264.23 392.852 263.726 393.148C263.23 393.436 262.834 393.828 262.538 394.324C262.242 394.82 262.094 395.372 262.094 395.98V403H260.078V385H262.094V392.5C262.518 391.94 263.054 391.496 263.702 391.168C264.35 390.832 265.054 390.664 265.814 390.664C266.71 390.664 267.526 390.884 268.262 391.324C269.006 391.756 269.594 392.34 270.026 393.076C270.466 393.812 270.686 394.632 270.686 395.536ZM277.969 403.312C276.865 403.312 275.857 403.028 274.945 402.46C274.041 401.892 273.317 401.132 272.773 400.18C272.237 399.22 271.969 398.16 271.969 397C271.969 396.12 272.125 395.3 272.437 394.54C272.749 393.772 273.177 393.1 273.721 392.524C274.273 391.94 274.913 391.484 275.641 391.156C276.369 390.828 277.145 390.664 277.969 390.664C278.873 390.664 279.701 390.848 280.453 391.216C281.213 391.576 281.861 392.08 282.397 392.728C282.941 393.376 283.345 394.128 283.609 394.984C283.881 395.84 283.981 396.756 283.909 397.732H274.117C274.213 398.412 274.437 399.02 274.789 399.556C275.141 400.084 275.589 400.504 276.133 400.816C276.685 401.128 277.297 401.288 277.969 401.296C278.689 401.296 279.341 401.112 279.925 400.744C280.509 400.368 280.981 399.856 281.341 399.208L283.393 399.688C282.913 400.752 282.189 401.624 281.221 402.304C280.253 402.976 279.169 403.312 277.969 403.312ZM274.057 396.148H281.881C281.817 395.476 281.601 394.864 281.233 394.312C280.865 393.752 280.397 393.304 279.829 392.968C279.261 392.632 278.641 392.464 277.969 392.464C277.297 392.464 276.681 392.628 276.121 392.956C275.561 393.284 275.097 393.728 274.729 394.288C274.369 394.84 274.145 395.46 274.057 396.148ZM291.535 403V391H293.551V392.5C293.975 391.94 294.507 391.496 295.147 391.168C295.795 390.832 296.499 390.664 297.259 390.664C298.147 390.664 298.959 390.88 299.695 391.312C300.431 391.744 301.011 392.316 301.435 393.028C301.859 392.316 302.435 391.744 303.163 391.312C303.899 390.88 304.707 390.664 305.587 390.664C306.491 390.664 307.311 390.884 308.047 391.324C308.783 391.756 309.367 392.34 309.799 393.076C310.239 393.812 310.459 394.632 310.459 395.536V403H308.443V396.016C308.443 395.424 308.299 394.876 308.011 394.372C307.723 393.868 307.335 393.464 306.847 393.16C306.359 392.856 305.819 392.704 305.227 392.704C304.635 392.704 304.095 392.848 303.607 393.136C303.119 393.416 302.731 393.808 302.443 394.312C302.155 394.808 302.011 395.376 302.011 396.016V403H299.995V396.016C299.995 395.376 299.851 394.808 299.563 394.312C299.275 393.808 298.883 393.416 298.387 393.136C297.899 392.848 297.359 392.704 296.767 392.704C296.183 392.704 295.643 392.856 295.147 393.16C294.659 393.464 294.271 393.868 293.983 394.372C293.695 394.876 293.551 395.424 293.551 396.016V403H291.535ZM317.746 403.312C316.642 403.312 315.634 403.028 314.722 402.46C313.818 401.892 313.094 401.132 312.55 400.18C312.014 399.22 311.746 398.16 311.746 397C311.746 396.12 311.902 395.3 312.214 394.54C312.526 393.772 312.954 393.1 313.498 392.524C314.05 391.94 314.69 391.484 315.418 391.156C316.146 390.828 316.922 390.664 317.746 390.664C318.85 390.664 319.854 390.948 320.758 391.516C321.67 392.084 322.394 392.848 322.93 393.808C323.474 394.768 323.746 395.832 323.746 397C323.746 397.872 323.59 398.688 323.278 399.448C322.966 400.208 322.534 400.88 321.982 401.464C321.438 402.04 320.802 402.492 320.074 402.82C319.354 403.148 318.578 403.312 317.746 403.312ZM317.746 401.296C318.498 401.296 319.174 401.1 319.774 400.708C320.382 400.308 320.858 399.784 321.202 399.136C321.554 398.48 321.73 397.768 321.73 397C321.73 396.216 321.55 395.496 321.19 394.84C320.838 394.184 320.362 393.66 319.762 393.268C319.162 392.876 318.49 392.68 317.746 392.68C316.994 392.68 316.318 392.88 315.718 393.28C315.118 393.672 314.642 394.196 314.29 394.852C313.938 395.508 313.762 396.224 313.762 397C313.762 397.8 313.942 398.528 314.302 399.184C314.662 399.832 315.146 400.348 315.754 400.732C316.362 401.108 317.026 401.296 317.746 401.296ZM325.569 403V391H327.585V392.5C328.009 391.94 328.541 391.496 329.181 391.168C329.829 390.832 330.533 390.664 331.293 390.664C332.181 390.664 332.993 390.88 333.729 391.312C334.465 391.744 335.045 392.316 335.469 393.028C335.893 392.316 336.469 391.744 337.197 391.312C337.933 390.88 338.741 390.664 339.621 390.664C340.525 390.664 341.345 390.884 342.081 391.324C342.817 391.756 343.401 392.34 343.833 393.076C344.273 393.812 344.493 394.632 344.493 395.536V403H342.477V396.016C342.477 395.424 342.333 394.876 342.045 394.372C341.757 393.868 341.369 393.464 340.881 393.16C340.393 392.856 339.853 392.704 339.261 392.704C338.669 392.704 338.129 392.848 337.641 393.136C337.153 393.416 336.765 393.808 336.477 394.312C336.189 394.808 336.045 395.376 336.045 396.016V403H334.029V396.016C334.029 395.376 333.885 394.808 333.597 394.312C333.309 393.808 332.917 393.416 332.421 393.136C331.933 392.848 331.393 392.704 330.801 392.704C330.217 392.704 329.677 392.856 329.181 393.16C328.693 393.464 328.305 393.868 328.017 394.372C327.729 394.876 327.585 395.424 327.585 396.016V403H325.569ZM351.78 403.312C350.676 403.312 349.668 403.028 348.756 402.46C347.852 401.892 347.128 401.132 346.584 400.18C346.048 399.22 345.78 398.16 345.78 397C345.78 396.12 345.936 395.3 346.248 394.54C346.56 393.772 346.988 393.1 347.532 392.524C348.084 391.94 348.724 391.484 349.452 391.156C350.18 390.828 350.956 390.664 351.78 390.664C352.684 390.664 353.512 390.848 354.264 391.216C355.024 391.576 355.672 392.08 356.208 392.728C356.752 393.376 357.156 394.128 357.42 394.984C357.692 395.84 357.792 396.756 357.72 397.732H347.928C348.024 398.412 348.248 399.02 348.6 399.556C348.952 400.084 349.4 400.504 349.944 400.816C350.496 401.128 351.108 401.288 351.78 401.296C352.5 401.296 353.152 401.112 353.736 400.744C354.32 400.368 354.792 399.856 355.152 399.208L357.204 399.688C356.724 400.752 356 401.624 355.032 402.304C354.064 402.976 352.98 403.312 351.78 403.312ZM347.868 396.148H355.692C355.628 395.476 355.412 394.864 355.044 394.312C354.676 393.752 354.208 393.304 353.64 392.968C353.072 392.632 352.452 392.464 351.78 392.464C351.108 392.464 350.492 392.628 349.932 392.956C349.372 393.284 348.908 393.728 348.54 394.288C348.18 394.84 347.956 395.46 347.868 396.148ZM370.187 395.536V403H368.171V395.98C368.171 395.372 368.023 394.82 367.727 394.324C367.431 393.828 367.035 393.436 366.539 393.148C366.043 392.852 365.491 392.704 364.883 392.704C364.283 392.704 363.731 392.852 363.227 393.148C362.731 393.436 362.335 393.828 362.039 394.324C361.743 394.82 361.595 395.372 361.595 395.98V403H359.579V391H361.595V392.5C362.019 391.94 362.555 391.496 363.203 391.168C363.851 390.832 364.555 390.664 365.315 390.664C366.211 390.664 367.027 390.884 367.763 391.324C368.507 391.756 369.095 392.34 369.527 393.076C369.967 393.812 370.187 394.632 370.187 395.536ZM378.64 393.016H375.916L375.904 403H373.888L373.9 393.016H371.836V391H373.9L373.888 387.232H375.904L375.916 391H378.64V393.016Z" fill="#636363"/>
</svg>
