<svg width="635" height="512" viewBox="0 0 635 512" fill="none" xmlns="http://www.w3.org/2000/svg">
<path d="M103.555 349.814C155.182 349.814 197.034 343.451 197.034 335.602C197.034 327.754 155.182 321.391 103.555 321.391C51.9278 321.391 10.0757 327.754 10.0757 335.602C10.0757 343.451 51.9278 349.814 103.555 349.814Z" fill="#F7BC8B" fill-opacity="0.36"/>
<path d="M69.9048 78.1026C85.8203 70.6411 105.643 75.3686 125.003 78.6497C125.183 74.6763 127.366 69.8405 125.079 67.0684C122.3 63.7006 122.556 60.1619 124.228 56.6029C128.504 47.502 122.378 37.8181 116.192 29.766C114.797 27.9552 113.035 26.5324 111.049 25.6133C109.062 24.6941 106.906 24.3044 104.757 24.4759L93.298 25.3781C90.5095 25.5976 87.8484 26.7506 85.6707 28.6827C83.493 30.6148 81.9026 33.2339 81.1122 36.1896C78.376 40.2914 76.9115 44.3818 77.8336 48.4509C73.7352 51.538 73.0466 55.2645 74.8883 59.4654C76.4499 62.1105 76.4333 64.6852 74.8172 67.1887C72.6949 70.3804 71.0693 73.9393 70.0072 77.7194L69.9048 78.1026Z" fill="#2F2E41"/>
<path d="M448.123 304.298H123.745C120.861 304.298 118.094 303.035 116.055 300.787C114.015 298.539 112.869 295.489 112.869 292.31C230.456 277.247 345.833 277.247 459 292.31C459 295.489 457.854 298.539 455.814 300.787C453.775 303.035 451.008 304.298 448.123 304.298Z" fill="#2F2E41"/>
<path d="M459 293.015L112.869 292.31L152.984 217.91L153.176 217.557V53.589C153.176 51.5987 153.532 49.628 154.223 47.7892C154.913 45.9504 155.926 44.2797 157.203 42.8724C158.48 41.4651 159.995 40.3488 161.664 39.5872C163.332 38.8257 165.12 38.4338 166.925 38.434H403.024C404.83 38.4338 406.618 38.8257 408.286 39.5872C409.954 40.3488 411.47 41.4651 412.747 42.8724C414.023 44.2797 415.036 45.9504 415.727 47.7892C416.418 49.628 416.773 51.5987 416.773 53.589V218.686L459 293.015Z" fill="#3F3D56"/>
<path d="M166.612 49.0121C165.425 49.0136 164.286 49.5342 163.447 50.4596C162.607 51.3851 162.135 52.6398 162.133 53.9486V203.453C162.135 204.762 162.607 206.017 163.447 206.942C164.286 207.868 165.425 208.388 166.612 208.39H405.257C406.444 208.388 407.583 207.868 408.422 206.942C409.262 206.017 409.734 204.762 409.735 203.453V53.9486C409.734 52.6398 409.262 51.3851 408.422 50.4597C407.583 49.5342 406.444 49.0137 405.257 49.0121H166.612Z" fill="white"/>
<path d="M167.612 228.136C167.245 228.136 166.886 228.253 166.577 228.471C166.268 228.689 166.022 229 165.868 229.367L153.507 258.986C153.373 259.308 153.314 259.663 153.336 260.017C153.358 260.37 153.461 260.713 153.635 261.011C153.808 261.31 154.047 261.556 154.33 261.726C154.612 261.896 154.929 261.986 155.251 261.986H415.192C415.519 261.986 415.841 261.894 416.127 261.718C416.412 261.542 416.653 261.289 416.825 260.982C416.997 260.675 417.094 260.325 417.109 259.965C417.124 259.605 417.055 259.246 416.908 258.924L403.472 229.305C403.314 228.953 403.069 228.657 402.766 228.45C402.462 228.243 402.113 228.134 401.756 228.136H167.612Z" fill="#2F2E41"/>
<path d="M284.975 46.5439C286.565 46.5439 287.854 45.1231 287.854 43.3705C287.854 41.6178 286.565 40.197 284.975 40.197C283.385 40.197 282.096 41.6178 282.096 43.3705C282.096 45.1231 283.385 46.5439 284.975 46.5439Z" fill="white"/>
<path d="M259.425 267.627C259.003 267.628 258.593 267.782 258.258 268.064C257.923 268.347 257.682 268.744 257.572 269.193L254.471 281.887C254.394 282.2 254.384 282.529 254.441 282.848C254.498 283.166 254.621 283.466 254.801 283.724C254.98 283.981 255.21 284.19 255.475 284.334C255.739 284.478 256.029 284.552 256.324 284.552H315.29C315.596 284.552 315.898 284.472 316.17 284.317C316.442 284.163 316.676 283.939 316.854 283.664C317.031 283.389 317.146 283.072 317.19 282.738C317.233 282.404 317.204 282.063 317.103 281.745L313.117 269.051C312.986 268.635 312.742 268.275 312.417 268.02C312.091 267.765 311.702 267.628 311.303 267.627H259.425Z" fill="#2F2E41"/>
<path d="M416.773 215.089V217.91H152.984L153.183 217.558V215.089H416.773Z" fill="#2F2E41"/>
<path d="M378.151 157.679H193.718C192.812 157.678 191.944 157.281 191.304 156.575C190.663 155.87 190.303 154.913 190.302 153.915V103.487C190.303 102.489 190.663 101.532 191.304 100.826C191.944 100.121 192.812 99.7237 193.718 99.7226H378.151C379.057 99.7237 379.925 100.121 380.565 100.826C381.205 101.532 381.565 102.489 381.566 103.487V153.915C381.565 154.913 381.205 155.87 380.565 156.575C379.925 157.281 379.057 157.678 378.151 157.679ZM193.718 101.228C193.174 101.229 192.653 101.467 192.269 101.891C191.885 102.314 191.669 102.888 191.668 103.487V153.915C191.669 154.514 191.885 155.088 192.269 155.511C192.653 155.935 193.174 156.173 193.718 156.173H378.151C378.694 156.173 379.215 155.935 379.599 155.511C379.984 155.088 380.2 154.514 380.2 153.915V103.487C380.2 102.888 379.984 102.314 379.599 101.891C379.215 101.467 378.694 101.229 378.151 101.228L193.718 101.228Z" fill="#FFF9F3"/>
<path d="M222.375 142.101C230.059 142.101 236.287 135.235 236.287 126.766C236.287 118.297 230.059 111.431 222.375 111.431C214.691 111.431 208.462 118.297 208.462 126.766C208.462 135.235 214.691 142.101 222.375 142.101Z" fill="#FFF9F3"/>
<path d="M254.507 116.543C254.202 116.542 253.9 116.608 253.618 116.736C253.336 116.864 253.08 117.052 252.865 117.29C252.649 117.527 252.478 117.809 252.361 118.119C252.244 118.43 252.184 118.763 252.184 119.099C252.184 119.434 252.244 119.767 252.361 120.078C252.478 120.388 252.649 120.67 252.865 120.907C253.08 121.145 253.336 121.333 253.618 121.461C253.9 121.589 254.202 121.655 254.507 121.654H363.82C364.435 121.654 365.025 121.385 365.46 120.906C365.895 120.426 366.139 119.776 366.139 119.099C366.139 118.421 365.895 117.771 365.46 117.291C365.025 116.812 364.435 116.543 363.82 116.543H254.507Z" fill="#FFF9F3"/>
<path d="M254.507 131.878C253.892 131.878 253.302 132.147 252.867 132.626C252.432 133.106 252.188 133.756 252.188 134.434C252.188 135.111 252.432 135.761 252.867 136.241C253.302 136.72 253.892 136.989 254.507 136.989H301.544C302.159 136.989 302.749 136.72 303.184 136.241C303.619 135.761 303.863 135.111 303.863 134.434C303.863 133.756 303.619 133.106 303.184 132.626C302.749 132.147 302.159 131.878 301.544 131.878H254.507Z" fill="#FFF9F3"/>
<path d="M152.53 132.912L118.436 152.891L118.005 136.241C129.133 134.194 139.72 130.629 149.509 124.825L153.075 115.115C153.464 114.056 154.095 113.128 154.908 112.42C155.72 111.712 156.686 111.25 157.709 111.077C158.733 110.905 159.78 111.029 160.747 111.437C161.714 111.846 162.568 112.524 163.226 113.406C164.187 114.697 164.668 116.342 164.57 118.008C164.473 119.675 163.804 121.238 162.7 122.382L152.53 132.912Z" fill="#FFB8B8"/>
<path d="M69.2252 248.263C68.9765 247.258 68.9237 246.206 69.0702 245.176C69.2168 244.147 69.5595 243.163 70.0757 242.29L77.5651 229.621C79.3365 226.624 82.0547 224.46 85.1921 223.547C88.3296 222.635 91.6626 223.04 94.5446 224.683C91.397 230.589 91.8358 235.769 95.6317 240.272C89.739 243.442 84.2929 247.535 79.4619 252.422C78.5799 253.085 77.5671 253.506 76.5077 253.65C75.4484 253.793 74.3731 253.656 73.3716 253.249C72.3701 252.843 71.4713 252.178 70.75 251.31C70.0288 250.443 69.506 249.399 69.2252 248.263Z" fill="#2F2E41"/>
<path d="M154.083 231.698C152.95 233.78 151.35 235.506 149.437 236.711C147.525 237.915 145.363 238.557 143.16 238.575L93.4054 238.991L91.2476 225.196L113.258 218.06L94.7001 202.363L114.984 176.2L151.825 214.048C153.979 216.26 155.378 219.22 155.789 222.433C156.2 225.645 155.598 228.916 154.083 231.698Z" fill="#2F2E41"/>
<path d="M85.637 326.042H73.9846C63.5225 246.997 52.873 167.73 84.3423 138.144L121.457 144.804L116.71 179.529L95.9946 205.692L85.637 326.042Z" fill="#2F2E41"/>
<path d="M95.8803 343.949C94.9681 344.223 94.0135 344.281 93.0795 344.12C92.1454 343.958 91.2529 343.581 90.4607 343.012L77.8087 341.137C75.09 339.185 73.1261 336.189 72.2982 332.731C71.4703 329.273 71.8373 325.599 73.3281 322.422C78.686 325.891 83.3861 325.407 87.4705 321.223C90.3565 327.646 95.1114 327.254 99.6526 332.665C100.254 333.637 100.636 334.754 100.766 335.921C100.897 337.089 100.773 338.274 100.403 339.378C100.034 340.482 99.4314 341.473 98.6446 342.268C97.8578 343.063 96.91 343.639 95.8803 343.949Z" fill="#2F2E41"/>
<path d="M113.258 85.3424L91.6792 79.6341C95.263 71.5483 95.5582 62.5511 93.837 52.9954L108.51 52.5197C108.97 64.4025 110.361 75.5041 113.258 85.3424Z" fill="#FFB8B8"/>
<path d="M119.188 159.127C103.48 170.925 92.3807 159.53 83.9109 141.95C85.0878 131.192 83.1821 118.318 79.6527 104.33C78.083 98.1598 78.669 91.5655 81.295 85.8486C83.921 80.1317 88.3962 75.7077 93.8369 73.4501L112.394 82.0126C128.152 96.1699 131.253 111.505 125.341 127.679L119.188 159.127Z" fill="white"/>
<path d="M73.9848 97.2347L56.722 107.224L87.3634 127.203L91.627 138.795C91.9116 139.569 92.0502 140.398 92.0344 141.233C92.0187 142.068 91.8488 142.89 91.5353 143.65C91.2218 144.41 90.7711 145.092 90.2107 145.654C89.6504 146.215 88.9921 146.645 88.2761 146.917C87.4621 147.227 86.5942 147.324 85.7404 147.202C84.8866 147.08 84.0699 146.742 83.3545 146.214C82.639 145.686 82.0442 144.983 81.6166 144.159C81.1889 143.335 80.9401 142.414 80.8895 141.466L80.4583 133.387L41.5135 119.222C40.2013 118.744 39.0049 117.944 38.0149 116.882C37.0248 115.819 36.2671 114.523 35.7991 113.09C35.1168 111.001 35.0821 108.722 35.7003 106.609C36.3185 104.496 37.5547 102.669 39.2156 101.413L70.5323 77.7314L73.9848 97.2347Z" fill="#FFB8B8"/>
<path d="M91.2476 99.1375C84.0479 95.6597 77.5011 99.4376 69.2376 102.467L67.9429 77.2557C76.1482 72.4352 83.9715 71.1355 91.2476 74.8772L91.2476 99.1375Z" fill="white"/>
<path d="M99.86 65.0079C107.469 65.0079 113.637 58.2091 113.637 49.8224C113.637 41.4356 107.469 34.6368 99.86 34.6368C92.2512 34.6368 86.083 41.4356 86.083 49.8224C86.083 58.2091 92.2512 65.0079 99.86 65.0079Z" fill="#FFB8B8"/>
<path d="M116.342 47.9063C102.701 49.3789 92.3074 46.92 85.6646 39.9186V34.2802H115.184L116.342 47.9063Z" fill="#2F2E41"/>
<path d="M495.005 175.638C495.033 176.423 495.227 177.192 495.574 177.891C495.92 178.591 496.411 179.203 497.011 179.685C497.611 180.166 498.306 180.506 499.046 180.68C499.787 180.855 500.556 180.858 501.298 180.692L510.909 197L515 188.022L505.246 173.912C504.893 172.641 504.101 171.547 503.021 170.839C501.941 170.131 500.647 169.858 499.384 170.07C498.122 170.283 496.979 170.967 496.172 171.993C495.365 173.019 494.949 174.316 495.005 175.638Z" fill="#FFB6B6"/>
<path d="M567 223.24L533.935 204.057L523.506 193.591C523.506 193.591 518.972 192.293 520.641 190.716C522.31 189.139 517.554 187.618 517.554 187.618L511.956 182L504 188.021L506.302 191.838C506.302 191.838 506.144 198.158 509.381 196.942C512.617 195.726 511.809 200.968 511.809 200.968L531.128 233L567 223.24Z" fill="white"/>
<path d="M470 205C487.673 205 502 189.778 502 171C502 152.222 487.673 137 470 137C452.327 137 438 152.222 438 171C438 189.778 452.327 205 470 205Z" fill="white"/>
<path d="M567 471H560.224L557 444H567V471Z" fill="#FFB6B6"/>
<path d="M514 471H507.224L504 444H514V471Z" fill="#FFB6B6"/>
<path d="M560 265H526V305H560V265Z" fill="#FFB6B6"/>
<path d="M560.644 264.779L564.322 253.112L566.949 249.223L568 238.112C568 208.111 561.671 213.107 561.671 213.107L558.017 202.556L541.202 202L530.431 212.834L521.498 216.167L518 235.384L524.388 255.89L525.964 267.001C522.957 272.87 523.212 270.094 525.702 274.501L555.389 283.112C565.898 287.001 565.898 277.001 563.791 274.501C561.684 272.001 560.644 264.779 560.644 264.779Z" fill="white"/>
<path d="M547.5 199C556.06 199 563 191.613 563 182.5C563 173.387 556.06 166 547.5 166C538.94 166 532 173.387 532 182.5C532 191.613 538.94 199 547.5 199Z" fill="#FFB6B6"/>
<path d="M568.222 204.243C568.369 204.5 568.458 204.789 568.483 205.087C568.508 205.385 568.467 205.685 568.364 205.965C568.262 206.245 568.099 206.497 567.89 206.702C567.68 206.908 567.429 207.062 567.154 207.153C565.059 207.873 563.77 209.975 562.265 211.657C560.765 213.333 558.349 214.725 556.434 213.584C554.523 212.448 554.392 209.549 552.792 207.977C551.234 206.448 548.645 206.634 546.813 207.797L546.759 207.832C546.442 208.046 546.073 208.159 545.695 208.157C545.318 208.155 544.949 208.039 544.635 207.822C544.321 207.605 544.075 207.297 543.927 206.937C543.78 206.577 543.737 206.179 543.805 205.794C544.447 202.254 545.088 198.714 545.729 195.174C544.045 199.384 541.599 203.22 538.525 206.476C537.678 207.49 536.604 208.273 535.399 208.758C534.304 209.118 533.241 207.944 532.178 208.157C534.82 205.76 543.703 190.397 542.114 180.128C540.245 180.346 538.377 180.565 536.509 180.783C536.307 179.866 535.875 179.02 535.256 178.332C535.332 179.224 535.223 180.123 534.935 180.969C534.157 181.061 533.372 181.149 532.594 181.242C531.509 181.367 530.331 181.476 529.399 180.887C527.847 179.904 527.799 177.578 528.241 175.744C529.536 170.41 533.462 165.949 538.267 163.613C543.072 161.281 544.492 166.473 549.555 164.814C559.554 161.538 567.217 167.14 569.917 177.535C572.185 186.253 570.538 195.507 568.222 204.243Z" fill="#2F2E41"/>
<path d="M458.546 197.08C459.363 197.225 460.145 197.586 460.835 198.137C461.525 198.688 462.107 199.416 462.54 200.269C462.973 201.122 463.246 202.08 463.34 203.075C463.435 204.07 463.348 205.078 463.086 206.028L479 220.884L469.129 225L455.53 210.262C454.243 209.623 453.193 208.434 452.58 206.92C451.968 205.406 451.835 203.672 452.207 202.048C452.578 200.423 453.429 199.02 454.597 198.104C455.766 197.188 457.171 196.824 458.546 197.08Z" fill="#FFB6B6"/>
<path d="M536.053 209L498.804 233.029C498.804 233.029 483.785 227.199 486.72 224.5C489.655 221.801 480.312 219.976 480.312 219.976L469.99 212.69L464 219.994C464 219.994 465.091 231.857 466.948 229.803C468.805 227.749 471.581 233.36 471.581 233.36C471.581 233.36 472.401 239.626 477.687 238.049C482.973 236.472 497.158 253 497.158 253L543 235.061L536.053 209Z" fill="white"/>
<path d="M468.593 185C468.161 185 467.736 184.892 467.35 184.684C466.964 184.476 466.629 184.175 466.37 183.803L459.556 174.018C459.337 173.704 459.177 173.346 459.087 172.965C458.996 172.585 458.976 172.189 459.028 171.8C459.08 171.411 459.202 171.036 459.388 170.698C459.574 170.36 459.82 170.065 460.111 169.829C460.701 169.353 461.442 169.149 462.171 169.261C462.533 169.316 462.88 169.448 463.194 169.648C463.508 169.849 463.782 170.113 464.001 170.428L468.459 176.829L479.91 158.332C480.318 157.672 480.954 157.214 481.677 157.058C482.399 156.902 483.15 157.062 483.763 157.503C484.376 157.943 484.802 158.627 484.946 159.405C485.091 160.184 484.942 160.992 484.533 161.652L470.905 183.668C470.658 184.066 470.327 184.394 469.938 184.626C469.549 184.858 469.114 184.986 468.67 184.999C468.644 185 468.618 185 468.593 185Z" fill="#EF7612"/>
<path d="M527.038 285L521.283 292.117L511.343 314.016L486.297 376.378L481 389.566L485.278 412.881C485.278 412.881 485.97 429.307 485.97 431.995C485.97 437.47 490.346 440.503 490.346 440.503L493.556 458L524.684 456.631C524.684 456.631 523.598 437.345 517.078 432.48C510.559 427.616 507.562 402.262 507.562 402.262L504.019 391.013L538.548 348.181L538.771 363.153L538.878 370.4C538.878 370.4 533.822 417.533 539.716 426.68C545.61 435.828 539.836 434.751 539.836 434.751L540.117 453.62L577 453.894L568.863 399.57C568.863 399.57 564.731 396.156 566.942 392.724C569.153 389.293 564.799 385.09 564.799 385.09L566.752 342.681C566.752 342.681 564.59 335.355 567.133 334.403C569.676 333.451 567.467 327.152 567.467 327.152L567.845 318.943L560.259 293.486L527.038 285Z" fill="#2F2E41"/>
<path d="M529.5 512C587.766 512 635 501.703 635 489C635 476.297 587.766 466 529.5 466C471.234 466 424 476.297 424 489C424 501.703 471.234 512 529.5 512Z" fill="#FCBA83" fill-opacity="0.63"/>
<path d="M517 483H512.291L511.45 478.42L509.297 483H496.808C496.209 483 495.626 482.803 495.144 482.437C494.662 482.072 494.305 481.557 494.127 480.968C493.949 480.379 493.958 479.747 494.153 479.164C494.349 478.581 494.72 478.078 495.212 477.727L505.186 470.631V466L515.677 466.645L517 483Z" fill="#2F2E41"/>
<path d="M571 483H566.086L565.209 478.42L562.963 483H549.93C549.305 483 548.697 482.803 548.194 482.437C547.69 482.072 547.319 481.557 547.133 480.968C546.947 480.379 546.956 479.747 547.16 479.164C547.364 478.581 547.751 478.078 548.265 477.727L558.673 470.631V466L569.62 466.645L571 483Z" fill="#2F2E41"/>
</svg>
