<svg width="150" height="150" viewBox="0 0 85 85" fill="none" xmlns="http://www.w3.org/2000/svg">
<path d="M11.4095 52.5412H35.6428C28.6901 46.9624 23.944 41.5109 24.7796 35.8286C26.2837 28.1408 35.1414 25.9681 40.1552 31.4833C46.3389 26.1352 54.0267 28.475 55.3637 35.6614C56.8979 46.8609 37.0256 56.652 29.4888 64.1298C28.2897 65.3195 27.7879 66.9869 27.7879 68.676C27.7879 69.7198 27.9768 70.7641 28.4285 71.7052C33.4913 82.2545 43.0776 82.8678 49.5447 75.8129C52.5117 72.5761 53.1911 67.9808 53.1911 63.59V57.5412C53.1911 54.7798 55.4296 52.5412 58.1911 52.5412H61.1206C67.5753 52.5412 74.843 51.9375 78.6158 46.7002C81.8713 42.1809 81.5163 36.7416 78.224 32.4837C74.5216 27.6953 67.7945 27.138 61.7417 27.138H58.1911C55.4296 27.138 53.1911 24.8994 53.1911 22.138V10.5925C52.1883 -3.27902 29.4591 -3.7804 27.7879 10.5925V22.138C27.7879 24.8994 25.5493 27.138 22.7879 27.138H11.4095C-3.29765 28.3079 -4.30041 50.5357 11.4095 52.5412Z" fill="#EF7612"/>
</svg>
